<svg xmlns="http://www.w3.org/2000/svg" viewBox="0 0 216 138">
<style>
  text { font-family: -apple-system, system-ui, "Segoe UI", sans-serif; }
</style>
<rect width="216" height="138" fill="white" rx="8"/>
<text x="108.0" y="20" text-anchor="middle" font-size="12" font-weight="700" fill="#374151">DE-9 female (cable end)</text>
<path d="M 22.0,26.0 L 194.0,26.0 Q 208.0,26.0 208.0,40.0 L 198.0,86.0 Q 198.0,100.0 184.0,100.0 L 32.0,100.0 Q 18.0,100.0 18.0,86.0 L 8.0,40.0 Q 8.0,26.0 22.0,26.0 Z" fill="#E5E7EB" stroke="#9CA3AF" stroke-width="2"/>
<circle cx="172.0" cy="48.0" r="10" fill="#D1D5DB" stroke="#9CA3AF" stroke-width="1.5"/>
<text x="172.0" y="51.5" text-anchor="middle" font-size="9" font-weight="700" fill="#6B7280">1</text>
<circle cx="140.0" cy="48.0" r="10" fill="#F3F4F6" stroke="#9CA3AF" stroke-width="1.5"/>
<text x="140.0" y="51.5" text-anchor="middle" font-size="9" font-weight="700" fill="#000000">2</text>
<circle cx="108.0" cy="48.0" r="10" fill="#2563EB" stroke="#1D4ED8" stroke-width="1.5"/>
<text x="108.0" y="51.5" text-anchor="middle" font-size="9" font-weight="700" fill="#ffffff">3</text>
<circle cx="76.0" cy="48.0" r="10" fill="#D1D5DB" stroke="#9CA3AF" stroke-width="1.5"/>
<text x="76.0" y="51.5" text-anchor="middle" font-size="9" font-weight="700" fill="#6B7280">4</text>
<circle cx="44.0" cy="48.0" r="10" fill="#8B4513" stroke="#6B3410" stroke-width="1.5"/>
<text x="44.0" y="51.5" text-anchor="middle" font-size="9" font-weight="700" fill="#ffffff">5</text>
<circle cx="156.0" cy="78.0" r="10" fill="#D1D5DB" stroke="#9CA3AF" stroke-width="1.5"/>
<text x="156.0" y="81.5" text-anchor="middle" font-size="9" font-weight="700" fill="#6B7280">6</text>
<circle cx="124.0" cy="78.0" r="10" fill="#D1D5DB" stroke="#9CA3AF" stroke-width="1.5"/>
<text x="124.0" y="81.5" text-anchor="middle" font-size="9" font-weight="700" fill="#6B7280">7</text>
<circle cx="92.0" cy="78.0" r="10" fill="#D1D5DB" stroke="#9CA3AF" stroke-width="1.5"/>
<text x="92.0" y="81.5" text-anchor="middle" font-size="9" font-weight="700" fill="#6B7280">8</text>
<circle cx="60.0" cy="78.0" r="10" fill="#D1D5DB" stroke="#9CA3AF" stroke-width="1.5"/>
<text x="60.0" y="81.5" text-anchor="middle" font-size="9" font-weight="700" fill="#6B7280">9</text>
<line x1="140.0" y1="60.0" x2="140.0" y2="104.0" stroke="#D1D5DB" stroke-width="0.75"/>
<circle cx="140.0" cy="110.0" r="4" fill="#F3F4F6"/>
<text x="140.0" y="122.0" text-anchor="middle" font-size="10" font-weight="600" fill="#374151">RX</text>
<text x="140.0" y="134.0" text-anchor="middle" font-size="9" fill="#9CA3AF">White</text>
<line x1="108.0" y1="60.0" x2="108.0" y2="104.0" stroke="#D1D5DB" stroke-width="0.75"/>
<circle cx="108.0" cy="110.0" r="4" fill="#2563EB"/>
<text x="108.0" y="122.0" text-anchor="middle" font-size="10" font-weight="600" fill="#374151">TX</text>
<text x="108.0" y="134.0" text-anchor="middle" font-size="9" fill="#9CA3AF">Blue</text>
<line x1="44.0" y1="60.0" x2="44.0" y2="104.0" stroke="#D1D5DB" stroke-width="0.75"/>
<circle cx="44.0" cy="110.0" r="4" fill="#8B4513"/>
<text x="44.0" y="122.0" text-anchor="middle" font-size="10" font-weight="600" fill="#374151">GND</text>
<text x="44.0" y="134.0" text-anchor="middle" font-size="9" fill="#9CA3AF">Brown</text>
</svg>
