<svg xmlns="http://www.w3.org/2000/svg" viewBox="0 0 340 195">
<style>
  text { font-family: -apple-system, system-ui, "Segoe UI", sans-serif; }
</style>
<rect width="340" height="195" fill="white" rx="8"/>
<text x="170" y="22" text-anchor="middle" font-size="13" font-weight="600" fill="#1F2937">DE-9 · serial HAT</text>
<text x="170" y="38" text-anchor="middle" font-size="10" fill="#9CA3AF">Male face (looking at HAT connector)</text>
<path d="M 84.0,45.0 L 256.0,45.0 Q 270.0,45.0 270.0,59.0 L 260.0,105.0 Q 260.0,119.0 246.0,119.0 L 94.0,119.0 Q 80.0,119.0 80.0,105.0 L 70.0,59.0 Q 70.0,45.0 84.0,45.0 Z" fill="#E5E7EB" stroke="#9CA3AF" stroke-width="2"/>
<circle cx="106.0" cy="67.0" r="10" fill="#D1D5DB" stroke="#9CA3AF" stroke-width="1.5"/>
<text x="106.0" y="70.5" text-anchor="middle" font-size="9" font-weight="700" fill="#6B7280">1</text>
<circle cx="138.0" cy="67.0" r="10" fill="#2563EB" stroke="#1D4ED8" stroke-width="1.5"/>
<text x="138.0" y="70.5" text-anchor="middle" font-size="9" font-weight="700" fill="#ffffff">2</text>
<circle cx="170.0" cy="67.0" r="10" fill="#F3F4F6" stroke="#9CA3AF" stroke-width="1.5"/>
<text x="170.0" y="70.5" text-anchor="middle" font-size="9" font-weight="700" fill="#000000">3</text>
<circle cx="202.0" cy="67.0" r="10" fill="#D1D5DB" stroke="#9CA3AF" stroke-width="1.5"/>
<text x="202.0" y="70.5" text-anchor="middle" font-size="9" font-weight="700" fill="#6B7280">4</text>
<circle cx="234.0" cy="67.0" r="10" fill="#8B4513" stroke="#6B3410" stroke-width="1.5"/>
<text x="234.0" y="70.5" text-anchor="middle" font-size="9" font-weight="700" fill="#ffffff">5</text>
<circle cx="122.0" cy="97.0" r="10" fill="#D1D5DB" stroke="#9CA3AF" stroke-width="1.5"/>
<text x="122.0" y="100.5" text-anchor="middle" font-size="9" font-weight="700" fill="#6B7280">6</text>
<circle cx="154.0" cy="97.0" r="10" fill="#D1D5DB" stroke="#9CA3AF" stroke-width="1.5"/>
<text x="154.0" y="100.5" text-anchor="middle" font-size="9" font-weight="700" fill="#6B7280">7</text>
<circle cx="186.0" cy="97.0" r="10" fill="#D1D5DB" stroke="#9CA3AF" stroke-width="1.5"/>
<text x="186.0" y="100.5" text-anchor="middle" font-size="9" font-weight="700" fill="#6B7280">8</text>
<circle cx="218.0" cy="97.0" r="10" fill="#D1D5DB" stroke="#9CA3AF" stroke-width="1.5"/>
<text x="218.0" y="100.5" text-anchor="middle" font-size="9" font-weight="700" fill="#6B7280">9</text>
<line x1="138.0" y1="79.0" x2="138.0" y2="123.0" stroke="#D1D5DB" stroke-width="0.75"/>
<circle cx="138.0" cy="129.0" r="4" fill="#2563EB"/>
<text x="138.0" y="141.0" text-anchor="middle" font-size="10" font-weight="600" fill="#374151">RX</text>
<text x="138.0" y="153.0" text-anchor="middle" font-size="9" fill="#9CA3AF">Blue</text>
<line x1="170.0" y1="79.0" x2="170.0" y2="123.0" stroke="#D1D5DB" stroke-width="0.75"/>
<circle cx="170.0" cy="129.0" r="4" fill="#F3F4F6"/>
<text x="170.0" y="141.0" text-anchor="middle" font-size="10" font-weight="600" fill="#374151">TX</text>
<text x="170.0" y="153.0" text-anchor="middle" font-size="9" fill="#9CA3AF">White</text>
<line x1="234.0" y1="79.0" x2="234.0" y2="123.0" stroke="#D1D5DB" stroke-width="0.75"/>
<circle cx="234.0" cy="129.0" r="4" fill="#8B4513"/>
<text x="234.0" y="141.0" text-anchor="middle" font-size="10" font-weight="600" fill="#374151">GND</text>
<text x="234.0" y="153.0" text-anchor="middle" font-size="9" fill="#9CA3AF">Brown</text>
</svg>
