<svg xmlns="http://www.w3.org/2000/svg" viewBox="0 0 280 230">
<style>
  text { font-family: -apple-system, system-ui, "Segoe UI", sans-serif; }
</style>
<rect width="280" height="230" fill="white" rx="8"/>
<text x="140" y="24" text-anchor="middle" font-size="13" font-weight="600" fill="#1F2937">M12 4-pin · sensor cable</text>
<text x="140" y="40" text-anchor="middle" font-size="10" fill="#9CA3AF">Female face (looking at cable end)</text>
<circle cx="140" cy="108" r="56" fill="#E5E7EB" stroke="#9CA3AF" stroke-width="2.5"/>
<rect x="134" y="51" width="12" height="10" rx="2" fill="#9CA3AF"/>
<rect x="136" y="52" width="8" height="8" rx="1" fill="white"/>
<circle cx="159.1" cy="88.9" r="12" fill="#8B4513" stroke="#6B3410" stroke-width="1.5"/>
<text x="159.1" y="92.9" text-anchor="middle" font-size="11" font-weight="700" fill="#ffffff">1</text>
<line x1="181.7" y1="66.3" x2="190.9" y2="57.1" stroke="#D1D5DB" stroke-width="0.75"/>
<text x="190.9" y="58.1" text-anchor="start" font-size="11" fill="#374151">Ground</text>
<text x="190.9" y="70.1" text-anchor="start" font-size="9" fill="#9CA3AF">Brown wire</text>
<circle cx="159.1" cy="127.1" r="12" fill="#222222" stroke="#000000" stroke-width="1.5"/>
<text x="159.1" y="131.1" text-anchor="middle" font-size="11" font-weight="700" fill="#ffffff">2</text>
<line x1="181.7" y1="149.7" x2="190.9" y2="158.9" stroke="#D1D5DB" stroke-width="0.75"/>
<text x="190.9" y="159.9" text-anchor="start" font-size="11" fill="#374151">5-24V</text>
<text x="190.9" y="171.9" text-anchor="start" font-size="9" fill="#9CA3AF">Black wire</text>
<circle cx="120.9" cy="127.1" r="12" fill="#2563EB" stroke="#1D4ED8" stroke-width="1.5"/>
<text x="120.9" y="131.1" text-anchor="middle" font-size="11" font-weight="700" fill="#ffffff">3</text>
<line x1="98.3" y1="149.7" x2="89.1" y2="158.9" stroke="#D1D5DB" stroke-width="0.75"/>
<text x="89.1" y="159.9" text-anchor="end" font-size="11" fill="#374151">RS2_TxD</text>
<text x="89.1" y="171.9" text-anchor="end" font-size="9" fill="#9CA3AF">Blue wire</text>
<circle cx="120.9" cy="88.9" r="12" fill="#F3F4F6" stroke="#9CA3AF" stroke-width="1.5"/>
<text x="120.9" y="92.9" text-anchor="middle" font-size="11" font-weight="700" fill="#000000">4</text>
<line x1="98.3" y1="66.3" x2="89.1" y2="57.1" stroke="#D1D5DB" stroke-width="0.75"/>
<text x="89.1" y="58.1" text-anchor="end" font-size="11" fill="#374151">RS2_RxD</text>
<text x="89.1" y="70.1" text-anchor="end" font-size="9" fill="#9CA3AF">White wire</text>
</svg>
