<svg xmlns="http://www.w3.org/2000/svg" viewBox="0 0 320 280">
<style>
  text { font-family: -apple-system, system-ui, "Segoe UI", sans-serif; }
</style>
<rect width="320" height="280" fill="white" rx="8"/>
<text x="160" y="24" text-anchor="middle" font-size="13" font-weight="600" fill="#1F2937">M12 4-pin · sensor cable</text>
<text x="160" y="40" text-anchor="middle" font-size="10" fill="#9CA3AF">Female face (looking at cable end)</text>
<circle cx="160" cy="132" r="56" fill="#E5E7EB" stroke="#9CA3AF" stroke-width="2.5"/>
<rect x="154" y="75" width="12" height="10" rx="2" fill="#9CA3AF"/>
<rect x="156" y="76" width="8" height="8" rx="1" fill="white"/>
<circle cx="179.1" cy="112.9" r="12" fill="#8B4513" stroke="#6B3410" stroke-width="1.5"/>
<text x="179.1" y="116.9" text-anchor="middle" font-size="11" font-weight="700" fill="#ffffff">1</text>
<line x1="201.7" y1="90.3" x2="210.9" y2="81.1" stroke="#D1D5DB" stroke-width="0.75"/>
<text x="210.9" y="82.1" text-anchor="start" font-size="11" fill="#374151">RS2_RxD</text>
<text x="210.9" y="94.1" text-anchor="start" font-size="9" fill="#9CA3AF">Brown wire</text>
<circle cx="179.1" cy="151.1" r="12" fill="#222222" stroke="#000000" stroke-width="1.5"/>
<text x="179.1" y="155.1" text-anchor="middle" font-size="11" font-weight="700" fill="#ffffff">2</text>
<line x1="201.7" y1="173.7" x2="210.9" y2="182.9" stroke="#D1D5DB" stroke-width="0.75"/>
<text x="210.9" y="183.9" text-anchor="start" font-size="11" fill="#374151">RS2_TxD</text>
<text x="210.9" y="195.9" text-anchor="start" font-size="9" fill="#9CA3AF">Black wire</text>
<circle cx="140.9" cy="151.1" r="12" fill="#2563EB" stroke="#1D4ED8" stroke-width="1.5"/>
<text x="140.9" y="155.1" text-anchor="middle" font-size="11" font-weight="700" fill="#ffffff">3</text>
<line x1="118.3" y1="173.7" x2="109.1" y2="182.9" stroke="#D1D5DB" stroke-width="0.75"/>
<text x="109.1" y="183.9" text-anchor="end" font-size="11" fill="#374151">5-24V</text>
<text x="109.1" y="195.9" text-anchor="end" font-size="9" fill="#9CA3AF">Blue wire</text>
<circle cx="140.9" cy="112.9" r="12" fill="#F3F4F6" stroke="#9CA3AF" stroke-width="1.5"/>
<text x="140.9" y="116.9" text-anchor="middle" font-size="11" font-weight="700" fill="#000000">4</text>
<line x1="118.3" y1="90.3" x2="109.1" y2="81.1" stroke="#D1D5DB" stroke-width="0.75"/>
<text x="109.1" y="82.1" text-anchor="end" font-size="11" fill="#374151">Ground</text>
<text x="109.1" y="94.1" text-anchor="end" font-size="9" fill="#9CA3AF">White wire</text>
<text x="160" y="268" text-anchor="middle" font-size="9" fill="#9CA3AF">OPS7243-A · J3 Rev D (4 of 10 pins used)</text>
</svg>
