<svg xmlns="http://www.w3.org/2000/svg" viewBox="0 0 190 151">
<style>
  text { font-family: -apple-system, system-ui, "Segoe UI", sans-serif; }
</style>
<rect width="190" height="151" fill="white" rx="8"/>
<text x="95" y="18" text-anchor="middle" font-size="12" font-weight="700" fill="#374151">M12 female (cable end)</text>
<circle cx="95" cy="80" r="56" fill="#E5E7EB" stroke="#9CA3AF" stroke-width="2.5"/>
<rect x="89" y="23" width="12" height="10" rx="2" fill="#9CA3AF"/>
<rect x="91" y="24" width="8" height="8" rx="1" fill="white"/>
<circle cx="114.1" cy="60.9" r="12" fill="#F3F4F6" stroke="#9CA3AF" stroke-width="1.5"/>
<text x="114.1" y="64.9" text-anchor="middle" font-size="11" font-weight="700" fill="#000000">1</text>
<line x1="136.7" y1="38.3" x2="144.5" y2="30.5" stroke="#D1D5DB" stroke-width="0.75"/>
<text x="144.5" y="31.5" text-anchor="start" font-size="11" fill="#374151">RS2_Rx</text>
<text x="144.5" y="43.5" text-anchor="start" font-size="9" fill="#9CA3AF">White</text>
<circle cx="114.1" cy="99.1" r="12" fill="#2563EB" stroke="#1D4ED8" stroke-width="1.5"/>
<text x="114.1" y="103.1" text-anchor="middle" font-size="11" font-weight="700" fill="#ffffff">2</text>
<line x1="136.7" y1="121.7" x2="144.5" y2="129.5" stroke="#D1D5DB" stroke-width="0.75"/>
<text x="144.5" y="130.5" text-anchor="start" font-size="11" fill="#374151">RS2_Tx</text>
<text x="144.5" y="142.5" text-anchor="start" font-size="9" fill="#9CA3AF">Blue</text>
<circle cx="75.9" cy="99.1" r="12" fill="#222222" stroke="#000000" stroke-width="1.5"/>
<text x="75.9" y="103.1" text-anchor="middle" font-size="11" font-weight="700" fill="#ffffff">3</text>
<line x1="53.3" y1="121.7" x2="45.5" y2="129.5" stroke="#D1D5DB" stroke-width="0.75"/>
<text x="45.5" y="130.5" text-anchor="end" font-size="11" fill="#374151">VCC</text>
<text x="45.5" y="142.5" text-anchor="end" font-size="9" fill="#9CA3AF">Black</text>
<circle cx="75.9" cy="60.9" r="12" fill="#8B4513" stroke="#6B3410" stroke-width="1.5"/>
<text x="75.9" y="64.9" text-anchor="middle" font-size="11" font-weight="700" fill="#ffffff">4</text>
<line x1="53.3" y1="38.3" x2="45.5" y2="30.5" stroke="#D1D5DB" stroke-width="0.75"/>
<text x="45.5" y="31.5" text-anchor="end" font-size="11" fill="#374151">GND</text>
<text x="45.5" y="43.5" text-anchor="end" font-size="9" fill="#9CA3AF">Brown</text>
</svg>
