<?xml version="1.0" encoding="UTF-8" standalone="no"?>
<!DOCTYPE svg PUBLIC "-//W3C//DTD SVG 1.1//EN"
 "http://www.w3.org/Graphics/SVG/1.1/DTD/svg11.dtd">
<!-- Generated by graphviz version 12.2.1 (20241206.2353)
 -->
<!-- Pages: 1 -->
<svg width="2150pt" height="347pt"
 viewBox="0.00 0.00 2149.75 347.25" xmlns="http://www.w3.org/2000/svg" xmlns:xlink="http://www.w3.org/1999/xlink">
<g id="graph0" class="graph" transform="scale(1 1) rotate(0) translate(4 343.25)">
<polygon fill="#ffffff" stroke="none" points="-4,4 -4,-343.25 2145.75,-343.25 2145.75,4 -4,4"/>
<!-- OPS7243 -->
<g id="node1" class="node">
<title>OPS7243</title>
<polygon fill="#ffffff" stroke="black" points="209,-282.62 0,-282.62 0,-116.38 209,-116.38 209,-282.62"/>
<polygon fill="none" stroke="black" points="0,-258.88 0,-282.62 209,-282.62 209,-258.88 0,-258.88"/>
<text text-anchor="start" x="74.88" y="-265.32" font-family="arial" font-size="14.00">OPS7243</text>
<polygon fill="none" stroke="black" points="0,-235.12 0,-258.88 86.42,-258.88 86.42,-235.12 0,-235.12"/>
<text text-anchor="start" x="12.83" y="-241.57" font-family="arial" font-size="14.00">M12 4&#45;pin</text>
<polygon fill="none" stroke="black" points="86.42,-235.12 86.42,-258.88 153.33,-258.88 153.33,-235.12 86.42,-235.12"/>
<text text-anchor="start" x="99.25" y="-241.57" font-family="arial" font-size="14.00">female</text>
<polygon fill="none" stroke="black" points="153.33,-235.12 153.33,-258.88 209,-258.88 209,-235.12 153.33,-235.12"/>
<text text-anchor="start" x="166.17" y="-241.57" font-family="arial" font-size="14.00">4&#45;pin</text>
<polygon fill="none" stroke="black" points="0,-211.38 0,-235.12 116.12,-235.12 116.12,-211.38 0,-211.38"/>
<text text-anchor="start" x="43.81" y="-217.82" font-family="arial" font-size="14.00">VCC</text>
<polygon fill="none" stroke="black" points="116.12,-211.38 116.12,-235.12 209,-235.12 209,-211.38 116.12,-211.38"/>
<text text-anchor="start" x="158.81" y="-217.82" font-family="arial" font-size="14.00">1</text>
<polygon fill="none" stroke="black" points="0,-187.62 0,-211.38 116.12,-211.38 116.12,-187.62 0,-187.62"/>
<text text-anchor="start" x="49.44" y="-194.07" font-family="arial" font-size="14.00">TX</text>
<polygon fill="none" stroke="black" points="116.12,-187.62 116.12,-211.38 209,-211.38 209,-187.62 116.12,-187.62"/>
<text text-anchor="start" x="158.81" y="-194.07" font-family="arial" font-size="14.00">2</text>
<polygon fill="none" stroke="black" points="0,-163.88 0,-187.62 116.12,-187.62 116.12,-163.88 0,-163.88"/>
<text text-anchor="start" x="48.69" y="-170.32" font-family="arial" font-size="14.00">RX</text>
<polygon fill="none" stroke="black" points="116.12,-163.88 116.12,-187.62 209,-187.62 209,-163.88 116.12,-163.88"/>
<text text-anchor="start" x="158.81" y="-170.32" font-family="arial" font-size="14.00">3</text>
<polygon fill="none" stroke="black" points="0,-140.12 0,-163.88 116.12,-163.88 116.12,-140.12 0,-140.12"/>
<text text-anchor="start" x="42.69" y="-146.57" font-family="arial" font-size="14.00">GND</text>
<polygon fill="none" stroke="black" points="116.12,-140.12 116.12,-163.88 209,-163.88 209,-140.12 116.12,-140.12"/>
<text text-anchor="start" x="158.81" y="-146.57" font-family="arial" font-size="14.00">4</text>
<polygon fill="none" stroke="black" points="0,-116.38 0,-140.12 209,-140.12 209,-116.38 0,-116.38"/>
<text text-anchor="start" x="4" y="-122.83" font-family="arial" font-size="14.00">OPS7243&#45;A&#45;CW&#45;R2 radar sensor</text>
</g>
<!-- M12 cable -->
<g id="node4" class="node">
<title>M12 cable</title>
<polygon fill="#ffffff" stroke="black" points="626.75,-339.25 353,-339.25 353,-101.75 626.75,-101.75 626.75,-339.25"/>
<polygon fill="none" stroke="black" points="353,-315.5 353,-339.25 626.75,-339.25 626.75,-315.5 353,-315.5"/>
<text text-anchor="start" x="458.38" y="-321.95" font-family="arial" font-size="14.00">M12 cable</text>
<polygon fill="none" stroke="black" points="353,-291.75 353,-315.5 626.75,-315.5 626.75,-291.75 353,-291.75"/>
<text text-anchor="start" x="399.5" y="-298.2" font-family="arial" font-size="14.00">P/N: OPS700&#45;CBL&#45;M1&#45;PT&#45;1.8</text>
<polygon fill="none" stroke="black" points="353,-268 353,-291.75 479.75,-291.75 479.75,-268 353,-268"/>
<text text-anchor="start" x="409.25" y="-274.45" font-family="arial" font-size="14.00">4x</text>
<polygon fill="none" stroke="black" points="479.75,-268 479.75,-291.75 626.75,-291.75 626.75,-268 479.75,-268"/>
<text text-anchor="start" x="536" y="-274.45" font-family="arial" font-size="14.00">1.8 m</text>
<text text-anchor="start" x="405.62" y="-252.7" font-family="arial" font-size="14.00"> </text>
<text text-anchor="start" x="356.12" y="-232.95" font-family="arial" font-size="14.00">OPS7243:1:VCC</text>
<text text-anchor="start" x="465.88" y="-232.95" font-family="arial" font-size="14.00"> &#160;&#160;&#160;&#160;1:RD &#160;&#160;&#160;</text>
<text text-anchor="start" x="543" y="-232.95" font-family="arial" font-size="14.00">pigtail:1:Red</text>
<polygon fill="#000000" stroke="none" points="353,-226.5 353,-228.5 626.75,-228.5 626.75,-226.5 353,-226.5"/>
<polygon fill="#ff0000" stroke="none" points="353,-224.5 353,-226.5 626.75,-226.5 626.75,-224.5 353,-224.5"/>
<polygon fill="#000000" stroke="none" points="353,-222.5 353,-224.5 626.75,-224.5 626.75,-222.5 353,-222.5"/>
<text text-anchor="start" x="361.75" y="-207.2" font-family="arial" font-size="14.00">OPS7243:2:TX</text>
<text text-anchor="start" x="465.12" y="-207.2" font-family="arial" font-size="14.00"> &#160;&#160;&#160;&#160;2:GN &#160;&#160;&#160;</text>
<text text-anchor="start" x="536.25" y="-207.2" font-family="arial" font-size="14.00">pigtail:2:Green</text>
<polygon fill="#000000" stroke="none" points="353,-200.75 353,-202.75 626.75,-202.75 626.75,-200.75 353,-200.75"/>
<polygon fill="#00ff00" stroke="none" points="353,-198.75 353,-200.75 626.75,-200.75 626.75,-198.75 353,-198.75"/>
<polygon fill="#000000" stroke="none" points="353,-196.75 353,-198.75 626.75,-198.75 626.75,-196.75 353,-196.75"/>
<text text-anchor="start" x="361" y="-181.45" font-family="arial" font-size="14.00">OPS7243:3:RX</text>
<text text-anchor="start" x="464" y="-181.45" font-family="arial" font-size="14.00"> &#160;&#160;&#160;&#160;3:WH &#160;&#160;&#160;</text>
<text text-anchor="start" x="537.75" y="-181.45" font-family="arial" font-size="14.00">pigtail:3:White</text>
<polygon fill="#000000" stroke="none" points="353,-175 353,-177 626.75,-177 626.75,-175 353,-175"/>
<polygon fill="#ffffff" stroke="none" points="353,-173 353,-175 626.75,-175 626.75,-173 353,-173"/>
<polygon fill="#000000" stroke="none" points="353,-171 353,-173 626.75,-173 626.75,-171 353,-171"/>
<text text-anchor="start" x="355" y="-155.7" font-family="arial" font-size="14.00">OPS7243:4:GND</text>
<text text-anchor="start" x="466.62" y="-155.7" font-family="arial" font-size="14.00"> &#160;&#160;&#160;&#160;4:BK &#160;&#160;&#160;</text>
<text text-anchor="start" x="538.88" y="-155.7" font-family="arial" font-size="14.00">pigtail:4:Black</text>
<polygon fill="#000000" stroke="none" points="353,-149.25 353,-151.25 626.75,-151.25 626.75,-149.25 353,-149.25"/>
<polygon fill="#000000" stroke="none" points="353,-147.25 353,-149.25 626.75,-149.25 626.75,-147.25 353,-147.25"/>
<polygon fill="#000000" stroke="none" points="353,-145.25 353,-147.25 626.75,-147.25 626.75,-145.25 353,-145.25"/>
<text text-anchor="start" x="405.62" y="-129.95" font-family="arial" font-size="14.00"> </text>
<polygon fill="none" stroke="black" points="353,-101.75 353,-125.5 626.75,-125.5 626.75,-101.75 353,-101.75"/>
<text text-anchor="start" x="449.38" y="-108.2" font-family="arial" font-size="14.00">M12 to pigtail</text>
</g>
<!-- OPS7243&#45;&#45;M12 cable -->
<g id="edge1" class="edge">
<title>OPS7243:e&#45;&#45;M12 cable:w</title>
<path fill="none" stroke="#000000" stroke-width="2" d="M209,-221.25C273.29,-221.27 289.27,-223.52 353,-223.5"/>
<path fill="none" stroke="#ff0000" stroke-width="2" d="M209,-223.25C273.01,-223.25 288.99,-225.5 353,-225.5"/>
<path fill="none" stroke="#000000" stroke-width="2" d="M209,-225.25C272.73,-225.23 288.71,-227.48 353,-227.5"/>
</g>
<!-- OPS7243&#45;&#45;M12 cable -->
<g id="edge3" class="edge">
<title>OPS7243:e&#45;&#45;M12 cable:w</title>
<path fill="none" stroke="#000000" stroke-width="2" d="M209,-197.5C273.03,-197.5 289.03,-197.75 353,-197.75"/>
<path fill="none" stroke="#00ff00" stroke-width="2" d="M209,-199.5C273,-199.5 289,-199.75 353,-199.75"/>
<path fill="none" stroke="#000000" stroke-width="2" d="M209,-201.5C272.97,-201.5 288.97,-201.75 353,-201.75"/>
</g>
<!-- OPS7243&#45;&#45;M12 cable -->
<g id="edge5" class="edge">
<title>OPS7243:e&#45;&#45;M12 cable:w</title>
<path fill="none" stroke="#000000" stroke-width="2" d="M209,-173.75C272.79,-173.76 288.78,-172.01 353,-172"/>
<path fill="none" stroke="#ffffff" stroke-width="2" d="M209,-175.75C273,-175.75 289,-174 353,-174"/>
<path fill="none" stroke="#000000" stroke-width="2" d="M209,-177.75C273.22,-177.74 289.21,-175.99 353,-176"/>
</g>
<!-- OPS7243&#45;&#45;M12 cable -->
<g id="edge7" class="edge">
<title>OPS7243:e&#45;&#45;M12 cable:w</title>
<path fill="none" stroke="#000000" stroke-width="2" d="M209,-150C272.56,-150.05 288.52,-146.3 353,-146.25"/>
<path fill="none" stroke="#000000" stroke-width="2" d="M209,-152C273.02,-152 288.98,-148.25 353,-148.25"/>
<path fill="none" stroke="#000000" stroke-width="2" d="M209,-154C273.48,-153.95 289.44,-150.2 353,-150.25"/>
</g>
<!-- pigtail -->
<g id="node2" class="node">
<title>pigtail</title>
<polygon fill="#ffffff" stroke="black" points="1038.25,-282.62 770.75,-282.62 770.75,-116.38 1038.25,-116.38 1038.25,-282.62"/>
<polygon fill="none" stroke="black" points="770.75,-258.88 770.75,-282.62 1038.25,-282.62 1038.25,-258.88 770.75,-258.88"/>
<text text-anchor="start" x="886.88" y="-265.32" font-family="arial" font-size="14.00">pigtail</text>
<polygon fill="none" stroke="black" points="770.75,-235.12 770.75,-258.88 907.12,-258.88 907.12,-235.12 770.75,-235.12"/>
<text text-anchor="start" x="821.31" y="-241.57" font-family="arial" font-size="14.00">pigtail</text>
<polygon fill="none" stroke="black" points="907.12,-235.12 907.12,-258.88 1038.25,-258.88 1038.25,-235.12 907.12,-235.12"/>
<text text-anchor="start" x="957.69" y="-241.57" font-family="arial" font-size="14.00">4&#45;pin</text>
<polygon fill="none" stroke="black" points="770.75,-211.38 770.75,-235.12 849.67,-235.12 849.67,-211.38 770.75,-211.38"/>
<text text-anchor="start" x="806.46" y="-217.82" font-family="arial" font-size="14.00">1</text>
<polygon fill="none" stroke="black" points="849.67,-211.38 849.67,-235.12 959.33,-235.12 959.33,-211.38 849.67,-211.38"/>
<text text-anchor="start" x="892.12" y="-217.82" font-family="arial" font-size="14.00">Red</text>
<polygon fill="none" stroke="black" points="959.33,-211.38 959.33,-235.12 1038.25,-235.12 1038.25,-211.38 959.33,-211.38"/>
<text text-anchor="start" x="995.04" y="-217.82" font-family="arial" font-size="14.00">1</text>
<polygon fill="none" stroke="black" points="770.75,-187.62 770.75,-211.38 849.67,-211.38 849.67,-187.62 770.75,-187.62"/>
<text text-anchor="start" x="806.46" y="-194.07" font-family="arial" font-size="14.00">2</text>
<polygon fill="none" stroke="black" points="849.67,-187.62 849.67,-211.38 959.33,-211.38 959.33,-187.62 849.67,-187.62"/>
<text text-anchor="start" x="885.38" y="-194.07" font-family="arial" font-size="14.00">Green</text>
<polygon fill="none" stroke="black" points="959.33,-187.62 959.33,-211.38 1038.25,-211.38 1038.25,-187.62 959.33,-187.62"/>
<text text-anchor="start" x="995.04" y="-194.07" font-family="arial" font-size="14.00">2</text>
<polygon fill="none" stroke="black" points="770.75,-163.88 770.75,-187.62 849.67,-187.62 849.67,-163.88 770.75,-163.88"/>
<text text-anchor="start" x="806.46" y="-170.32" font-family="arial" font-size="14.00">3</text>
<polygon fill="none" stroke="black" points="849.67,-163.88 849.67,-187.62 959.33,-187.62 959.33,-163.88 849.67,-163.88"/>
<text text-anchor="start" x="886.88" y="-170.32" font-family="arial" font-size="14.00">White</text>
<polygon fill="none" stroke="black" points="959.33,-163.88 959.33,-187.62 1038.25,-187.62 1038.25,-163.88 959.33,-163.88"/>
<text text-anchor="start" x="995.04" y="-170.32" font-family="arial" font-size="14.00">3</text>
<polygon fill="none" stroke="black" points="770.75,-140.12 770.75,-163.88 849.67,-163.88 849.67,-140.12 770.75,-140.12"/>
<text text-anchor="start" x="806.46" y="-146.57" font-family="arial" font-size="14.00">4</text>
<polygon fill="none" stroke="black" points="849.67,-140.12 849.67,-163.88 959.33,-163.88 959.33,-140.12 849.67,-140.12"/>
<text text-anchor="start" x="888" y="-146.57" font-family="arial" font-size="14.00">Black</text>
<polygon fill="none" stroke="black" points="959.33,-140.12 959.33,-163.88 1038.25,-163.88 1038.25,-140.12 959.33,-140.12"/>
<text text-anchor="start" x="995.04" y="-146.57" font-family="arial" font-size="14.00">4</text>
<polygon fill="none" stroke="black" points="770.75,-116.38 770.75,-140.12 1038.25,-140.12 1038.25,-116.38 770.75,-116.38"/>
<text text-anchor="start" x="774.75" y="-122.83" font-family="arial" font-size="14.00">Bare wire ends of OPS700&#45;CBL&#45;M1&#45;PT&#45;1.8</text>
</g>
<!-- Serial -->
<g id="node5" class="node">
<title>Serial</title>
<polygon fill="#ffffff" stroke="black" points="1699.5,-291.5 1182.25,-291.5 1182.25,-103.5 1699.5,-103.5 1699.5,-291.5"/>
<polygon fill="none" stroke="black" points="1182.25,-267.75 1182.25,-291.5 1699.5,-291.5 1699.5,-267.75 1182.25,-267.75"/>
<text text-anchor="start" x="1423.62" y="-274.2" font-family="arial" font-size="14.00">Serial</text>
<polygon fill="none" stroke="black" points="1182.25,-244 1182.25,-267.75 1422.12,-267.75 1422.12,-244 1182.25,-244"/>
<text text-anchor="start" x="1295.06" y="-250.45" font-family="arial" font-size="14.00">3x</text>
<polygon fill="none" stroke="black" points="1422.12,-244 1422.12,-267.75 1699.5,-267.75 1699.5,-244 1422.12,-244"/>
<text text-anchor="start" x="1534.94" y="-250.45" font-family="arial" font-size="14.00">28 AWG</text>
<text text-anchor="start" x="1272.96" y="-228.7" font-family="arial" font-size="14.00"> </text>
<text text-anchor="start" x="1230.58" y="-208.95" font-family="arial" font-size="14.00">pigtail:2:Green</text>
<text text-anchor="start" x="1416.88" y="-208.95" font-family="arial" font-size="14.00"> &#160;&#160;&#160;&#160;1:GN &#160;&#160;&#160;</text>
<text text-anchor="start" x="1586.67" y="-208.95" font-family="arial" font-size="14.00">HAT:2:RX</text>
<polygon fill="#000000" stroke="none" points="1182.25,-202.5 1182.25,-204.5 1699.5,-204.5 1699.5,-202.5 1182.25,-202.5"/>
<polygon fill="#00ff00" stroke="none" points="1182.25,-200.5 1182.25,-202.5 1699.5,-202.5 1699.5,-200.5 1182.25,-200.5"/>
<polygon fill="#000000" stroke="none" points="1182.25,-198.5 1182.25,-200.5 1699.5,-200.5 1699.5,-198.5 1182.25,-198.5"/>
<text text-anchor="start" x="1232.08" y="-183.2" font-family="arial" font-size="14.00">pigtail:3:White</text>
<text text-anchor="start" x="1415.75" y="-183.2" font-family="arial" font-size="14.00"> &#160;&#160;&#160;&#160;2:WH &#160;&#160;&#160;</text>
<text text-anchor="start" x="1587.42" y="-183.2" font-family="arial" font-size="14.00">HAT:3:TX</text>
<polygon fill="#000000" stroke="none" points="1182.25,-176.75 1182.25,-178.75 1699.5,-178.75 1699.5,-176.75 1182.25,-176.75"/>
<polygon fill="#ffffff" stroke="none" points="1182.25,-174.75 1182.25,-176.75 1699.5,-176.75 1699.5,-174.75 1182.25,-174.75"/>
<polygon fill="#000000" stroke="none" points="1182.25,-172.75 1182.25,-174.75 1699.5,-174.75 1699.5,-172.75 1182.25,-172.75"/>
<text text-anchor="start" x="1233.21" y="-157.45" font-family="arial" font-size="14.00">pigtail:4:Black</text>
<text text-anchor="start" x="1418.38" y="-157.45" font-family="arial" font-size="14.00"> &#160;&#160;&#160;&#160;3:BK &#160;&#160;&#160;</text>
<text text-anchor="start" x="1580.67" y="-157.45" font-family="arial" font-size="14.00">HAT:5:GND</text>
<polygon fill="#000000" stroke="none" points="1182.25,-151 1182.25,-153 1699.5,-153 1699.5,-151 1182.25,-151"/>
<polygon fill="#000000" stroke="none" points="1182.25,-149 1182.25,-151 1699.5,-151 1699.5,-149 1182.25,-149"/>
<polygon fill="#000000" stroke="none" points="1182.25,-147 1182.25,-149 1699.5,-149 1699.5,-147 1182.25,-147"/>
<text text-anchor="start" x="1272.96" y="-131.7" font-family="arial" font-size="14.00"> </text>
<polygon fill="none" stroke="black" points="1182.25,-103.5 1182.25,-127.25 1699.5,-127.25 1699.5,-103.5 1182.25,-103.5"/>
<text text-anchor="start" x="1186.25" y="-109.95" font-family="arial" font-size="14.00">Pigtail soldered to DE&#45;9 female connector, plugged into HAT DB&#45;9 (TX/RX crossover)</text>
</g>
<!-- pigtail&#45;&#45;Serial -->
<g id="edge9" class="edge">
<title>pigtail:e&#45;&#45;Serial:w</title>
<path fill="none" stroke="#000000" stroke-width="2" d="M1038.25,-197.5C1102.5,-197.52 1118.49,-199.52 1182.25,-199.5"/>
<path fill="none" stroke="#00ff00" stroke-width="2" d="M1038.25,-199.5C1102.26,-199.5 1118.24,-201.5 1182.25,-201.5"/>
<path fill="none" stroke="#000000" stroke-width="2" d="M1038.25,-201.5C1102.01,-201.48 1118,-203.48 1182.25,-203.5"/>
</g>
<!-- pigtail&#45;&#45;Serial -->
<g id="edge11" class="edge">
<title>pigtail:e&#45;&#45;Serial:w</title>
<path fill="none" stroke="#000000" stroke-width="2" d="M1038.25,-173.75C1102.25,-173.75 1118.25,-173.75 1182.25,-173.75"/>
<path fill="none" stroke="#ffffff" stroke-width="2" d="M1038.25,-175.75C1102.25,-175.75 1118.25,-175.75 1182.25,-175.75"/>
<path fill="none" stroke="#000000" stroke-width="2" d="M1038.25,-177.75C1102.25,-177.75 1118.25,-177.75 1182.25,-177.75"/>
</g>
<!-- pigtail&#45;&#45;Serial -->
<g id="edge13" class="edge">
<title>pigtail:e&#45;&#45;Serial:w</title>
<path fill="none" stroke="#000000" stroke-width="2" d="M1038.25,-150C1102.01,-150.02 1118,-148.02 1182.25,-148"/>
<path fill="none" stroke="#000000" stroke-width="2" d="M1038.25,-152C1102.26,-152 1118.24,-150 1182.25,-150"/>
<path fill="none" stroke="#000000" stroke-width="2" d="M1038.25,-154C1102.5,-153.98 1118.49,-151.98 1182.25,-152"/>
</g>
<!-- HAT -->
<g id="node3" class="node">
<title>HAT</title>
<polygon fill="#ffffff" stroke="black" points="2141.75,-285 1843.5,-285 1843.5,0 2141.75,0 2141.75,-285"/>
<polygon fill="none" stroke="black" points="1843.5,-261.25 1843.5,-285 2141.75,-285 2141.75,-261.25 1843.5,-261.25"/>
<text text-anchor="start" x="1979.5" y="-267.7" font-family="arial" font-size="14.00">HAT</text>
<polygon fill="none" stroke="black" points="1843.5,-237.5 1843.5,-261.25 1943.42,-261.25 1943.42,-237.5 1843.5,-237.5"/>
<text text-anchor="start" x="1878.08" y="-243.95" font-family="arial" font-size="14.00">DE&#45;9</text>
<polygon fill="none" stroke="black" points="1943.42,-237.5 1943.42,-261.25 2042.58,-261.25 2042.58,-237.5 1943.42,-237.5"/>
<text text-anchor="start" x="1978" y="-243.95" font-family="arial" font-size="14.00">male</text>
<polygon fill="none" stroke="black" points="2042.58,-237.5 2042.58,-261.25 2141.75,-261.25 2141.75,-237.5 2042.58,-237.5"/>
<text text-anchor="start" x="2077.17" y="-243.95" font-family="arial" font-size="14.00">9&#45;pin</text>
<polygon fill="none" stroke="black" points="1843.5,-213.75 1843.5,-237.5 1981,-237.5 1981,-213.75 1843.5,-213.75"/>
<text text-anchor="start" x="1908.5" y="-220.2" font-family="arial" font-size="14.00">1</text>
<polygon fill="none" stroke="black" points="1981,-213.75 1981,-237.5 2141.75,-237.5 2141.75,-213.75 1981,-213.75"/>
<text text-anchor="start" x="2046.75" y="-220.2" font-family="arial" font-size="14.00">DCD</text>
<polygon fill="none" stroke="black" points="1843.5,-190 1843.5,-213.75 1981,-213.75 1981,-190 1843.5,-190"/>
<text text-anchor="start" x="1908.5" y="-196.45" font-family="arial" font-size="14.00">2</text>
<polygon fill="none" stroke="black" points="1981,-190 1981,-213.75 2141.75,-213.75 2141.75,-190 1981,-190"/>
<text text-anchor="start" x="2052" y="-196.45" font-family="arial" font-size="14.00">RX</text>
<polygon fill="none" stroke="black" points="1843.5,-166.25 1843.5,-190 1981,-190 1981,-166.25 1843.5,-166.25"/>
<text text-anchor="start" x="1908.5" y="-172.7" font-family="arial" font-size="14.00">3</text>
<polygon fill="none" stroke="black" points="1981,-166.25 1981,-190 2141.75,-190 2141.75,-166.25 1981,-166.25"/>
<text text-anchor="start" x="2052.75" y="-172.7" font-family="arial" font-size="14.00">TX</text>
<polygon fill="none" stroke="black" points="1843.5,-142.5 1843.5,-166.25 1981,-166.25 1981,-142.5 1843.5,-142.5"/>
<text text-anchor="start" x="1908.5" y="-148.95" font-family="arial" font-size="14.00">4</text>
<polygon fill="none" stroke="black" points="1981,-142.5 1981,-166.25 2141.75,-166.25 2141.75,-142.5 1981,-142.5"/>
<text text-anchor="start" x="2047.5" y="-148.95" font-family="arial" font-size="14.00">DTR</text>
<polygon fill="none" stroke="black" points="1843.5,-118.75 1843.5,-142.5 1981,-142.5 1981,-118.75 1843.5,-118.75"/>
<text text-anchor="start" x="1908.5" y="-125.2" font-family="arial" font-size="14.00">5</text>
<polygon fill="none" stroke="black" points="1981,-118.75 1981,-142.5 2141.75,-142.5 2141.75,-118.75 1981,-118.75"/>
<text text-anchor="start" x="2046" y="-125.2" font-family="arial" font-size="14.00">GND</text>
<polygon fill="none" stroke="black" points="1843.5,-95 1843.5,-118.75 1981,-118.75 1981,-95 1843.5,-95"/>
<text text-anchor="start" x="1908.5" y="-101.45" font-family="arial" font-size="14.00">6</text>
<polygon fill="none" stroke="black" points="1981,-95 1981,-118.75 2141.75,-118.75 2141.75,-95 1981,-95"/>
<text text-anchor="start" x="2047.12" y="-101.45" font-family="arial" font-size="14.00">DSR</text>
<polygon fill="none" stroke="black" points="1843.5,-71.25 1843.5,-95 1981,-95 1981,-71.25 1843.5,-71.25"/>
<text text-anchor="start" x="1908.5" y="-77.7" font-family="arial" font-size="14.00">7</text>
<polygon fill="none" stroke="black" points="1981,-71.25 1981,-95 2141.75,-95 2141.75,-71.25 1981,-71.25"/>
<text text-anchor="start" x="2047.88" y="-77.7" font-family="arial" font-size="14.00">RTS</text>
<polygon fill="none" stroke="black" points="1843.5,-47.5 1843.5,-71.25 1981,-71.25 1981,-47.5 1843.5,-47.5"/>
<text text-anchor="start" x="1908.5" y="-53.95" font-family="arial" font-size="14.00">8</text>
<polygon fill="none" stroke="black" points="1981,-47.5 1981,-71.25 2141.75,-71.25 2141.75,-47.5 1981,-47.5"/>
<text text-anchor="start" x="2047.88" y="-53.95" font-family="arial" font-size="14.00">CTS</text>
<polygon fill="none" stroke="black" points="1843.5,-23.75 1843.5,-47.5 1981,-47.5 1981,-23.75 1843.5,-23.75"/>
<text text-anchor="start" x="1908.5" y="-30.2" font-family="arial" font-size="14.00">9</text>
<polygon fill="none" stroke="black" points="1981,-23.75 1981,-47.5 2141.75,-47.5 2141.75,-23.75 1981,-23.75"/>
<text text-anchor="start" x="2054.62" y="-30.2" font-family="arial" font-size="14.00">RI</text>
<polygon fill="none" stroke="black" points="1843.5,0 1843.5,-23.75 2141.75,-23.75 2141.75,0 1843.5,0"/>
<text text-anchor="start" x="1847.5" y="-6.45" font-family="arial" font-size="14.00">Waveshare RS232/485 HAT (on Raspberry Pi 4)</text>
</g>
<!-- M12 cable&#45;&#45;pigtail -->
<g id="edge2" class="edge">
<title>M12 cable:e&#45;&#45;pigtail:w</title>
<path fill="none" stroke="#000000" stroke-width="2" d="M626.75,-223.5C690.48,-223.52 706.46,-221.27 770.75,-221.25"/>
<path fill="none" stroke="#ff0000" stroke-width="2" d="M626.75,-225.5C690.76,-225.5 706.74,-223.25 770.75,-223.25"/>
<path fill="none" stroke="#000000" stroke-width="2" d="M626.75,-227.5C691.04,-227.48 707.02,-225.23 770.75,-225.25"/>
</g>
<!-- M12 cable&#45;&#45;pigtail -->
<g id="edge4" class="edge">
<title>M12 cable:e&#45;&#45;pigtail:w</title>
<path fill="none" stroke="#000000" stroke-width="2" d="M626.75,-197.75C690.72,-197.75 706.72,-197.5 770.75,-197.5"/>
<path fill="none" stroke="#00ff00" stroke-width="2" d="M626.75,-199.75C690.75,-199.75 706.75,-199.5 770.75,-199.5"/>
<path fill="none" stroke="#000000" stroke-width="2" d="M626.75,-201.75C690.78,-201.75 706.78,-201.5 770.75,-201.5"/>
</g>
<!-- M12 cable&#45;&#45;pigtail -->
<g id="edge6" class="edge">
<title>M12 cable:e&#45;&#45;pigtail:w</title>
<path fill="none" stroke="#000000" stroke-width="2" d="M626.75,-172C690.97,-172.01 706.96,-173.76 770.75,-173.75"/>
<path fill="none" stroke="#ffffff" stroke-width="2" d="M626.75,-174C690.75,-174 706.75,-175.75 770.75,-175.75"/>
<path fill="none" stroke="#000000" stroke-width="2" d="M626.75,-176C690.54,-175.99 706.53,-177.74 770.75,-177.75"/>
</g>
<!-- M12 cable&#45;&#45;pigtail -->
<g id="edge8" class="edge">
<title>M12 cable:e&#45;&#45;pigtail:w</title>
<path fill="none" stroke="#000000" stroke-width="2" d="M626.75,-146.25C691.23,-146.3 707.19,-150.05 770.75,-150"/>
<path fill="none" stroke="#000000" stroke-width="2" d="M626.75,-148.25C690.77,-148.25 706.73,-152 770.75,-152"/>
<path fill="none" stroke="#000000" stroke-width="2" d="M626.75,-150.25C690.31,-150.2 706.27,-153.95 770.75,-154"/>
</g>
<!-- Serial&#45;&#45;HAT -->
<g id="edge10" class="edge">
<title>Serial:e&#45;&#45;HAT:w</title>
<path fill="none" stroke="#000000" stroke-width="2" d="M1699.5,-199.5C1763.55,-199.5 1779.55,-199.88 1843.5,-199.88"/>
<path fill="none" stroke="#00ff00" stroke-width="2" d="M1699.5,-201.5C1763.5,-201.5 1779.5,-201.87 1843.5,-201.87"/>
<path fill="none" stroke="#000000" stroke-width="2" d="M1699.5,-203.5C1763.45,-203.5 1779.45,-203.87 1843.5,-203.87"/>
</g>
<!-- Serial&#45;&#45;HAT -->
<g id="edge12" class="edge">
<title>Serial:e&#45;&#45;HAT:w</title>
<path fill="none" stroke="#000000" stroke-width="2" d="M1699.5,-173.75C1763.8,-173.77 1779.79,-176.15 1843.5,-176.13"/>
<path fill="none" stroke="#ffffff" stroke-width="2" d="M1699.5,-175.75C1763.51,-175.75 1779.49,-178.12 1843.5,-178.12"/>
<path fill="none" stroke="#000000" stroke-width="2" d="M1699.5,-177.75C1763.21,-177.73 1779.2,-180.1 1843.5,-180.12"/>
</g>
<!-- Serial&#45;&#45;HAT -->
<g id="edge14" class="edge">
<title>Serial:e&#45;&#45;HAT:w</title>
<path fill="none" stroke="#000000" stroke-width="2" d="M1699.5,-148C1762.49,-148.78 1777.34,-129.41 1843.5,-128.63"/>
<path fill="none" stroke="#000000" stroke-width="2" d="M1699.5,-150C1764.08,-150 1778.92,-130.62 1843.5,-130.62"/>
<path fill="none" stroke="#000000" stroke-width="2" d="M1699.5,-152C1765.66,-151.22 1780.51,-131.84 1843.5,-132.62"/>
</g>
</g>
</svg>
