<?xml version="1.0" encoding="UTF-8" standalone="no"?>
<!DOCTYPE svg PUBLIC "-//W3C//DTD SVG 1.1//EN"
 "http://www.w3.org/Graphics/SVG/1.1/DTD/svg11.dtd">
<!-- Generated by graphviz version 12.2.1 (20241206.2353)
 -->
<!-- Pages: 1 -->
<svg width="1788pt" height="486pt"
 viewBox="0.00 0.00 1787.75 485.62" xmlns="http://www.w3.org/2000/svg" xmlns:xlink="http://www.w3.org/1999/xlink">
<g id="graph0" class="graph" transform="scale(1 1) rotate(0) translate(4 481.62)">
<polygon fill="#ffffff" stroke="none" points="-4,4 -4,-481.62 1783.75,-481.62 1783.75,4 -4,4"/>
<!-- OPS7243 -->
<g id="node1" class="node">
<title>OPS7243</title>
<polygon fill="#ffffff" stroke="black" points="227.75,-446.88 0,-446.88 0,-138.12 227.75,-138.12 227.75,-446.88"/>
<polygon fill="none" stroke="black" points="0,-423.12 0,-446.88 227.75,-446.88 227.75,-423.12 0,-423.12"/>
<text text-anchor="start" x="84.25" y="-429.57" font-family="arial" font-size="14.00">OPS7243</text>
<polygon fill="none" stroke="black" points="0,-399.38 0,-423.12 67.67,-423.12 67.67,-399.38 0,-399.38"/>
<text text-anchor="start" x="20.33" y="-405.82" font-family="arial" font-size="14.00">M12</text>
<polygon fill="none" stroke="black" points="67.67,-399.38 67.67,-423.12 149.58,-423.12 149.58,-399.38 67.67,-399.38"/>
<text text-anchor="start" x="88" y="-405.82" font-family="arial" font-size="14.00">female</text>
<polygon fill="none" stroke="black" points="149.58,-399.38 149.58,-423.12 227.75,-423.12 227.75,-399.38 149.58,-399.38"/>
<text text-anchor="start" x="169.92" y="-405.82" font-family="arial" font-size="14.00">10&#45;pin</text>
<polygon fill="none" stroke="black" points="0,-375.62 0,-399.38 147.25,-399.38 147.25,-375.62 0,-375.62"/>
<text text-anchor="start" x="56" y="-382.07" font-family="arial" font-size="14.00">GPIO</text>
<polygon fill="none" stroke="black" points="147.25,-375.62 147.25,-399.38 227.75,-399.38 227.75,-375.62 147.25,-375.62"/>
<text text-anchor="start" x="183.75" y="-382.07" font-family="arial" font-size="14.00">1</text>
<polygon fill="none" stroke="black" points="0,-351.88 0,-375.62 147.25,-375.62 147.25,-351.88 0,-351.88"/>
<text text-anchor="start" x="56" y="-358.32" font-family="arial" font-size="14.00">GPIO</text>
<polygon fill="none" stroke="black" points="147.25,-351.88 147.25,-375.62 227.75,-375.62 227.75,-351.88 147.25,-351.88"/>
<text text-anchor="start" x="183.75" y="-358.32" font-family="arial" font-size="14.00">2</text>
<polygon fill="none" stroke="black" points="0,-328.12 0,-351.88 147.25,-351.88 147.25,-328.12 0,-328.12"/>
<text text-anchor="start" x="32.75" y="-334.57" font-family="arial" font-size="14.00">Host Interrupt</text>
<polygon fill="none" stroke="black" points="147.25,-328.12 147.25,-351.88 227.75,-351.88 227.75,-328.12 147.25,-328.12"/>
<text text-anchor="start" x="183.75" y="-334.57" font-family="arial" font-size="14.00">3</text>
<polygon fill="none" stroke="black" points="0,-304.38 0,-328.12 147.25,-328.12 147.25,-304.38 0,-304.38"/>
<text text-anchor="start" x="54.12" y="-310.82" font-family="arial" font-size="14.00">/Reset</text>
<polygon fill="none" stroke="black" points="147.25,-304.38 147.25,-328.12 227.75,-328.12 227.75,-304.38 147.25,-304.38"/>
<text text-anchor="start" x="183.75" y="-310.82" font-family="arial" font-size="14.00">4</text>
<polygon fill="none" stroke="black" points="0,-280.62 0,-304.38 147.25,-304.38 147.25,-280.62 0,-280.62"/>
<text text-anchor="start" x="43.62" y="-287.07" font-family="arial" font-size="14.00">RS2_RxD</text>
<polygon fill="none" stroke="black" points="147.25,-280.62 147.25,-304.38 227.75,-304.38 227.75,-280.62 147.25,-280.62"/>
<text text-anchor="start" x="183.75" y="-287.07" font-family="arial" font-size="14.00">5</text>
<polygon fill="none" stroke="black" points="0,-256.88 0,-280.62 147.25,-280.62 147.25,-256.88 0,-256.88"/>
<text text-anchor="start" x="38.38" y="-263.32" font-family="arial" font-size="14.00">UART_RxD</text>
<polygon fill="none" stroke="black" points="147.25,-256.88 147.25,-280.62 227.75,-280.62 227.75,-256.88 147.25,-256.88"/>
<text text-anchor="start" x="183.75" y="-263.32" font-family="arial" font-size="14.00">6</text>
<polygon fill="none" stroke="black" points="0,-233.12 0,-256.88 147.25,-256.88 147.25,-233.12 0,-233.12"/>
<text text-anchor="start" x="39.12" y="-239.57" font-family="arial" font-size="14.00">UART_TxD</text>
<polygon fill="none" stroke="black" points="147.25,-233.12 147.25,-256.88 227.75,-256.88 227.75,-233.12 147.25,-233.12"/>
<text text-anchor="start" x="183.75" y="-239.57" font-family="arial" font-size="14.00">7</text>
<polygon fill="none" stroke="black" points="0,-209.38 0,-233.12 147.25,-233.12 147.25,-209.38 0,-209.38"/>
<text text-anchor="start" x="44.38" y="-215.82" font-family="arial" font-size="14.00">RS2_TxD</text>
<polygon fill="none" stroke="black" points="147.25,-209.38 147.25,-233.12 227.75,-233.12 227.75,-209.38 147.25,-209.38"/>
<text text-anchor="start" x="183.75" y="-215.82" font-family="arial" font-size="14.00">8</text>
<polygon fill="none" stroke="black" points="0,-185.62 0,-209.38 147.25,-209.38 147.25,-185.62 0,-185.62"/>
<text text-anchor="start" x="55.62" y="-192.07" font-family="arial" font-size="14.00">5&#45;24V</text>
<polygon fill="none" stroke="black" points="147.25,-185.62 147.25,-209.38 227.75,-209.38 227.75,-185.62 147.25,-185.62"/>
<text text-anchor="start" x="183.75" y="-192.07" font-family="arial" font-size="14.00">9</text>
<polygon fill="none" stroke="black" points="0,-161.88 0,-185.62 147.25,-185.62 147.25,-161.88 0,-161.88"/>
<text text-anchor="start" x="50.75" y="-168.32" font-family="arial" font-size="14.00">Ground</text>
<polygon fill="none" stroke="black" points="147.25,-161.88 147.25,-185.62 227.75,-185.62 227.75,-161.88 147.25,-161.88"/>
<text text-anchor="start" x="180" y="-168.32" font-family="arial" font-size="14.00">10</text>
<polygon fill="none" stroke="black" points="0,-138.12 0,-161.88 227.75,-161.88 227.75,-138.12 0,-138.12"/>
<text text-anchor="start" x="4" y="-144.57" font-family="arial" font-size="14.00">OPS7243&#45;A radar sensor (J3 Rev D)</text>
</g>
<!-- M12 cable -->
<g id="node5" class="node">
<title>M12 cable</title>
<polygon fill="#ffffff" stroke="black" points="674.75,-340.38 371.75,-340.38 371.75,-126.62 674.75,-126.62 674.75,-340.38"/>
<polygon fill="none" stroke="black" points="371.75,-316.62 371.75,-340.38 674.75,-340.38 674.75,-316.62 371.75,-316.62"/>
<text text-anchor="start" x="491.75" y="-323.07" font-family="arial" font-size="14.00">M12 cable</text>
<polygon fill="none" stroke="black" points="371.75,-292.88 371.75,-316.62 513.12,-316.62 513.12,-292.88 371.75,-292.88"/>
<text text-anchor="start" x="435.31" y="-299.32" font-family="arial" font-size="14.00">4x</text>
<polygon fill="none" stroke="black" points="513.12,-292.88 513.12,-316.62 674.75,-316.62 674.75,-292.88 513.12,-292.88"/>
<text text-anchor="start" x="576.69" y="-299.32" font-family="arial" font-size="14.00">1.8 m</text>
<text text-anchor="start" x="439" y="-277.57" font-family="arial" font-size="14.00"> </text>
<text text-anchor="start" x="373.75" y="-257.82" font-family="arial" font-size="14.00">OPS7243:5:RS2_RxD</text>
<text text-anchor="start" x="513.5" y="-257.82" font-family="arial" font-size="14.00"> &#160;&#160;&#160;&#160;1:BG &#160;&#160;&#160;</text>
<text text-anchor="start" x="584.25" y="-257.82" font-family="arial" font-size="14.00">pigtail:1:Brown</text>
<polygon fill="#000000" stroke="none" points="371.75,-251.38 371.75,-253.38 674.75,-253.38 674.75,-251.38 371.75,-251.38"/>
<polygon fill="#ceb673" stroke="none" points="371.75,-249.38 371.75,-251.38 674.75,-251.38 674.75,-249.38 371.75,-249.38"/>
<polygon fill="#000000" stroke="none" points="371.75,-247.38 371.75,-249.38 674.75,-249.38 674.75,-247.38 371.75,-247.38"/>
<text text-anchor="start" x="374.5" y="-232.07" font-family="arial" font-size="14.00">OPS7243:8:RS2_TxD</text>
<text text-anchor="start" x="514.62" y="-232.07" font-family="arial" font-size="14.00"> &#160;&#160;&#160;&#160;2:BK &#160;&#160;&#160;</text>
<text text-anchor="start" x="586.88" y="-232.07" font-family="arial" font-size="14.00">pigtail:2:Black</text>
<polygon fill="#000000" stroke="none" points="371.75,-225.62 371.75,-227.62 674.75,-227.62 674.75,-225.62 371.75,-225.62"/>
<polygon fill="#000000" stroke="none" points="371.75,-223.62 371.75,-225.62 674.75,-225.62 674.75,-223.62 371.75,-223.62"/>
<polygon fill="#000000" stroke="none" points="371.75,-221.62 371.75,-223.62 674.75,-223.62 674.75,-221.62 371.75,-221.62"/>
<text text-anchor="start" x="385.75" y="-206.32" font-family="arial" font-size="14.00">OPS7243:9:5&#45;24V</text>
<text text-anchor="start" x="514.25" y="-206.32" font-family="arial" font-size="14.00"> &#160;&#160;&#160;&#160;3:BU &#160;&#160;&#160;</text>
<text text-anchor="start" x="589.88" y="-206.32" font-family="arial" font-size="14.00">pigtail:3:Blue</text>
<polygon fill="#000000" stroke="none" points="371.75,-199.88 371.75,-201.88 674.75,-201.88 674.75,-199.88 371.75,-199.88"/>
<polygon fill="#0066ff" stroke="none" points="371.75,-197.88 371.75,-199.88 674.75,-199.88 674.75,-197.88 371.75,-197.88"/>
<polygon fill="#000000" stroke="none" points="371.75,-195.88 371.75,-197.88 674.75,-197.88 674.75,-195.88 371.75,-195.88"/>
<text text-anchor="start" x="377.12" y="-180.57" font-family="arial" font-size="14.00">OPS7243:10:Ground</text>
<text text-anchor="start" x="512" y="-180.57" font-family="arial" font-size="14.00"> &#160;&#160;&#160;&#160;4:WH &#160;&#160;&#160;</text>
<text text-anchor="start" x="585.75" y="-180.57" font-family="arial" font-size="14.00">pigtail:4:White</text>
<polygon fill="#000000" stroke="none" points="371.75,-174.12 371.75,-176.12 674.75,-176.12 674.75,-174.12 371.75,-174.12"/>
<polygon fill="#ffffff" stroke="none" points="371.75,-172.12 371.75,-174.12 674.75,-174.12 674.75,-172.12 371.75,-172.12"/>
<polygon fill="#000000" stroke="none" points="371.75,-170.12 371.75,-172.12 674.75,-172.12 674.75,-170.12 371.75,-170.12"/>
<text text-anchor="start" x="439" y="-154.82" font-family="arial" font-size="14.00"> </text>
<polygon fill="none" stroke="black" points="371.75,-126.62 371.75,-150.38 674.75,-150.38 674.75,-126.62 371.75,-126.62"/>
<text text-anchor="start" x="447.88" y="-133.07" font-family="arial" font-size="14.00">OPS700&#45;CBL&#45;M1&#45;PT&#45;1.8</text>
</g>
<!-- OPS7243&#45;&#45;M12 cable -->
<g id="edge1" class="edge">
<title>OPS7243:e&#45;&#45;M12 cable:w</title>
<path fill="none" stroke="#000000" stroke-width="2" d="M227.75,-290.5C292.49,-292.01 303.13,-249.89 371.75,-248.38"/>
<path fill="none" stroke="#ceb673" stroke-width="2" d="M227.75,-292.5C294.43,-292.5 305.07,-250.37 371.75,-250.37"/>
<path fill="none" stroke="#000000" stroke-width="2" d="M227.75,-294.5C296.37,-292.99 307.01,-250.86 371.75,-252.37"/>
</g>
<!-- OPS7243&#45;&#45;M12 cable -->
<g id="edge3" class="edge">
<title>OPS7243:e&#45;&#45;M12 cable:w</title>
<path fill="none" stroke="#000000" stroke-width="2" d="M227.75,-219.25C292.18,-219.29 308.15,-222.67 371.75,-222.63"/>
<path fill="none" stroke="#000000" stroke-width="2" d="M227.75,-221.25C291.77,-221.25 307.73,-224.62 371.75,-224.62"/>
<path fill="none" stroke="#000000" stroke-width="2" d="M227.75,-223.25C291.35,-223.21 307.32,-226.58 371.75,-226.62"/>
</g>
<!-- OPS7243&#45;&#45;M12 cable -->
<g id="edge5" class="edge">
<title>OPS7243:e&#45;&#45;M12 cable:w</title>
<path fill="none" stroke="#000000" stroke-width="2" d="M227.75,-195.5C291.92,-195.51 307.92,-196.88 371.75,-196.88"/>
<path fill="none" stroke="#0066ff" stroke-width="2" d="M227.75,-197.5C291.75,-197.5 307.75,-198.88 371.75,-198.88"/>
<path fill="none" stroke="#000000" stroke-width="2" d="M227.75,-199.5C291.58,-199.49 307.58,-200.87 371.75,-200.87"/>
</g>
<!-- OPS7243&#45;&#45;M12 cable -->
<g id="edge7" class="edge">
<title>OPS7243:e&#45;&#45;M12 cable:w</title>
<path fill="none" stroke="#000000" stroke-width="2" d="M227.75,-171.75C291.67,-171.75 307.67,-171.13 371.75,-171.13"/>
<path fill="none" stroke="#ffffff" stroke-width="2" d="M227.75,-173.75C291.75,-173.75 307.75,-173.12 371.75,-173.13"/>
<path fill="none" stroke="#000000" stroke-width="2" d="M227.75,-175.75C291.83,-175.75 307.83,-175.12 371.75,-175.12"/>
</g>
<!-- pigtail -->
<g id="node2" class="node">
<title>pigtail</title>
<polygon fill="#ffffff" stroke="black" points="977.5,-307.62 818.75,-307.62 818.75,-141.38 977.5,-141.38 977.5,-307.62"/>
<polygon fill="none" stroke="black" points="818.75,-283.88 818.75,-307.62 977.5,-307.62 977.5,-283.88 818.75,-283.88"/>
<text text-anchor="start" x="880.5" y="-290.32" font-family="arial" font-size="14.00">pigtail</text>
<polygon fill="none" stroke="black" points="818.75,-260.12 818.75,-283.88 900.75,-283.88 900.75,-260.12 818.75,-260.12"/>
<text text-anchor="start" x="842.12" y="-266.57" font-family="arial" font-size="14.00">pigtail</text>
<polygon fill="none" stroke="black" points="900.75,-260.12 900.75,-283.88 977.5,-283.88 977.5,-260.12 900.75,-260.12"/>
<text text-anchor="start" x="924.12" y="-266.57" font-family="arial" font-size="14.00">4&#45;pin</text>
<polygon fill="none" stroke="black" points="818.75,-236.38 818.75,-260.12 861.42,-260.12 861.42,-236.38 818.75,-236.38"/>
<text text-anchor="start" x="836.33" y="-242.82" font-family="arial" font-size="14.00">1</text>
<polygon fill="none" stroke="black" points="861.42,-236.38 861.42,-260.12 934.83,-260.12 934.83,-236.38 861.42,-236.38"/>
<text text-anchor="start" x="879" y="-242.82" font-family="arial" font-size="14.00">Brown</text>
<polygon fill="none" stroke="black" points="934.83,-236.38 934.83,-260.12 977.5,-260.12 977.5,-236.38 934.83,-236.38"/>
<text text-anchor="start" x="952.42" y="-242.82" font-family="arial" font-size="14.00">1</text>
<polygon fill="none" stroke="black" points="818.75,-212.62 818.75,-236.38 861.42,-236.38 861.42,-212.62 818.75,-212.62"/>
<text text-anchor="start" x="836.33" y="-219.07" font-family="arial" font-size="14.00">2</text>
<polygon fill="none" stroke="black" points="861.42,-212.62 861.42,-236.38 934.83,-236.38 934.83,-212.62 861.42,-212.62"/>
<text text-anchor="start" x="881.62" y="-219.07" font-family="arial" font-size="14.00">Black</text>
<polygon fill="none" stroke="black" points="934.83,-212.62 934.83,-236.38 977.5,-236.38 977.5,-212.62 934.83,-212.62"/>
<text text-anchor="start" x="952.42" y="-219.07" font-family="arial" font-size="14.00">2</text>
<polygon fill="none" stroke="black" points="818.75,-188.88 818.75,-212.62 861.42,-212.62 861.42,-188.88 818.75,-188.88"/>
<text text-anchor="start" x="836.33" y="-195.32" font-family="arial" font-size="14.00">3</text>
<polygon fill="none" stroke="black" points="861.42,-188.88 861.42,-212.62 934.83,-212.62 934.83,-188.88 861.42,-188.88"/>
<text text-anchor="start" x="884.62" y="-195.32" font-family="arial" font-size="14.00">Blue</text>
<polygon fill="none" stroke="black" points="934.83,-188.88 934.83,-212.62 977.5,-212.62 977.5,-188.88 934.83,-188.88"/>
<text text-anchor="start" x="952.42" y="-195.32" font-family="arial" font-size="14.00">3</text>
<polygon fill="none" stroke="black" points="818.75,-165.12 818.75,-188.88 861.42,-188.88 861.42,-165.12 818.75,-165.12"/>
<text text-anchor="start" x="836.33" y="-171.57" font-family="arial" font-size="14.00">4</text>
<polygon fill="none" stroke="black" points="861.42,-165.12 861.42,-188.88 934.83,-188.88 934.83,-165.12 861.42,-165.12"/>
<text text-anchor="start" x="880.5" y="-171.57" font-family="arial" font-size="14.00">White</text>
<polygon fill="none" stroke="black" points="934.83,-165.12 934.83,-188.88 977.5,-188.88 977.5,-165.12 934.83,-165.12"/>
<text text-anchor="start" x="952.42" y="-171.57" font-family="arial" font-size="14.00">4</text>
<polygon fill="none" stroke="black" points="818.75,-141.38 818.75,-165.12 977.5,-165.12 977.5,-141.38 818.75,-141.38"/>
<text text-anchor="start" x="822.75" y="-147.82" font-family="arial" font-size="14.00">OPS700&#45;CBL&#45;M1&#45;PT&#45;1.8</text>
</g>
<!-- Power -->
<g id="node6" class="node">
<title>Power</title>
<polygon fill="#ffffff" stroke="black" points="1391.12,-477.62 1125.62,-477.62 1125.62,-315.38 1391.12,-315.38 1391.12,-477.62"/>
<polygon fill="none" stroke="black" points="1125.62,-453.88 1125.62,-477.62 1391.12,-477.62 1391.12,-453.88 1125.62,-453.88"/>
<text text-anchor="start" x="1239.25" y="-460.32" font-family="arial" font-size="14.00">Power</text>
<polygon fill="none" stroke="black" points="1125.62,-430.12 1125.62,-453.88 1239.62,-453.88 1239.62,-430.12 1125.62,-430.12"/>
<text text-anchor="start" x="1175.5" y="-436.57" font-family="arial" font-size="14.00">2x</text>
<polygon fill="none" stroke="black" points="1239.62,-430.12 1239.62,-453.88 1391.12,-453.88 1391.12,-430.12 1239.62,-430.12"/>
<text text-anchor="start" x="1289.5" y="-436.57" font-family="arial" font-size="14.00">28 AWG</text>
<text text-anchor="start" x="1170" y="-414.82" font-family="arial" font-size="14.00"> </text>
<text text-anchor="start" x="1127.62" y="-395.07" font-family="arial" font-size="14.00">pigtail:1:Brown</text>
<text text-anchor="start" x="1220.12" y="-395.07" font-family="arial" font-size="14.00"> &#160;&#160;&#160;&#160;1:BG &#160;&#160;&#160;</text>
<text text-anchor="start" x="1296.12" y="-395.07" font-family="arial" font-size="14.00">HAT 12V:1:V+</text>
<polygon fill="#000000" stroke="none" points="1125.62,-388.62 1125.62,-390.62 1391.12,-390.62 1391.12,-388.62 1125.62,-388.62"/>
<polygon fill="#ceb673" stroke="none" points="1125.62,-386.62 1125.62,-388.62 1391.12,-388.62 1391.12,-386.62 1125.62,-386.62"/>
<polygon fill="#000000" stroke="none" points="1125.62,-384.62 1125.62,-386.62 1391.12,-386.62 1391.12,-384.62 1125.62,-384.62"/>
<text text-anchor="start" x="1130.25" y="-369.32" font-family="arial" font-size="14.00">pigtail:2:Black</text>
<text text-anchor="start" x="1221.25" y="-369.32" font-family="arial" font-size="14.00"> &#160;&#160;&#160;&#160;2:BK &#160;&#160;&#160;</text>
<text text-anchor="start" x="1289.38" y="-369.32" font-family="arial" font-size="14.00">HAT 12V:2:GND</text>
<polygon fill="#000000" stroke="none" points="1125.62,-362.88 1125.62,-364.88 1391.12,-364.88 1391.12,-362.88 1125.62,-362.88"/>
<polygon fill="#000000" stroke="none" points="1125.62,-360.88 1125.62,-362.88 1391.12,-362.88 1391.12,-360.88 1125.62,-360.88"/>
<polygon fill="#000000" stroke="none" points="1125.62,-358.88 1125.62,-360.88 1391.12,-360.88 1391.12,-358.88 1125.62,-358.88"/>
<text text-anchor="start" x="1170" y="-343.57" font-family="arial" font-size="14.00"> </text>
<polygon fill="none" stroke="black" points="1125.62,-315.38 1125.62,-339.12 1391.12,-339.12 1391.12,-315.38 1125.62,-315.38"/>
<text text-anchor="start" x="1225" y="-321.82" font-family="arial" font-size="14.00">12V supply</text>
</g>
<!-- pigtail&#45;&#45;Power -->
<g id="edge9" class="edge">
<title>pigtail:e&#45;&#45;Power:w</title>
<path fill="none" stroke="#000000" stroke-width="2" d="M977.5,-246.25C1069.52,-248.71 1036.5,-388.09 1124.62,-385.63"/>
<path fill="none" stroke="#ceb673" stroke-width="2" d="M977.5,-248.25C1067.57,-248.25 1034.55,-387.62 1124.62,-387.63"/>
<path fill="none" stroke="#000000" stroke-width="2" d="M977.5,-250.25C1065.63,-247.79 1032.61,-387.16 1124.62,-389.62"/>
</g>
<!-- pigtail&#45;&#45;Power -->
<g id="edge11" class="edge">
<title>pigtail:e&#45;&#45;Power:w</title>
<path fill="none" stroke="#000000" stroke-width="2" d="M977.5,-222.5C1068.91,-224.95 1037.11,-362.33 1124.62,-359.88"/>
<path fill="none" stroke="#000000" stroke-width="2" d="M977.5,-224.5C1066.96,-224.5 1035.16,-361.88 1124.62,-361.88"/>
<path fill="none" stroke="#000000" stroke-width="2" d="M977.5,-226.5C1065.01,-224.05 1033.21,-361.42 1124.62,-363.87"/>
</g>
<!-- Serial -->
<g id="node7" class="node">
<title>Serial</title>
<polygon fill="#ffffff" stroke="black" points="1395.25,-291.5 1121.5,-291.5 1121.5,-103.5 1395.25,-103.5 1395.25,-291.5"/>
<polygon fill="none" stroke="black" points="1121.5,-267.75 1121.5,-291.5 1395.25,-291.5 1395.25,-267.75 1121.5,-267.75"/>
<text text-anchor="start" x="1241.12" y="-274.2" font-family="arial" font-size="14.00">Serial</text>
<polygon fill="none" stroke="black" points="1121.5,-244 1121.5,-267.75 1239.62,-267.75 1239.62,-244 1121.5,-244"/>
<text text-anchor="start" x="1173.44" y="-250.45" font-family="arial" font-size="14.00">3x</text>
<polygon fill="none" stroke="black" points="1239.62,-244 1239.62,-267.75 1395.25,-267.75 1395.25,-244 1239.62,-244"/>
<text text-anchor="start" x="1291.56" y="-250.45" font-family="arial" font-size="14.00">28 AWG</text>
<text text-anchor="start" x="1164.38" y="-228.7" font-family="arial" font-size="14.00"> </text>
<text text-anchor="start" x="1127.62" y="-208.95" font-family="arial" font-size="14.00">pigtail:3:Blue</text>
<text text-anchor="start" x="1215.25" y="-208.95" font-family="arial" font-size="14.00"> &#160;&#160;&#160;&#160;1:BU &#160;&#160;&#160;</text>
<text text-anchor="start" x="1291.25" y="-208.95" font-family="arial" font-size="14.00">HAT serial:2:RX</text>
<polygon fill="#000000" stroke="none" points="1121.5,-202.5 1121.5,-204.5 1395.25,-204.5 1395.25,-202.5 1121.5,-202.5"/>
<polygon fill="#0066ff" stroke="none" points="1121.5,-200.5 1121.5,-202.5 1395.25,-202.5 1395.25,-200.5 1121.5,-200.5"/>
<polygon fill="#000000" stroke="none" points="1121.5,-198.5 1121.5,-200.5 1395.25,-200.5 1395.25,-198.5 1121.5,-198.5"/>
<text text-anchor="start" x="1123.5" y="-183.2" font-family="arial" font-size="14.00">pigtail:4:White</text>
<text text-anchor="start" x="1213" y="-183.2" font-family="arial" font-size="14.00"> &#160;&#160;&#160;&#160;2:WH &#160;&#160;&#160;</text>
<text text-anchor="start" x="1292" y="-183.2" font-family="arial" font-size="14.00">HAT serial:3:TX</text>
<polygon fill="#000000" stroke="none" points="1121.5,-176.75 1121.5,-178.75 1395.25,-178.75 1395.25,-176.75 1121.5,-176.75"/>
<polygon fill="#ffffff" stroke="none" points="1121.5,-174.75 1121.5,-176.75 1395.25,-176.75 1395.25,-174.75 1121.5,-174.75"/>
<polygon fill="#000000" stroke="none" points="1121.5,-172.75 1121.5,-174.75 1395.25,-174.75 1395.25,-172.75 1121.5,-172.75"/>
<text text-anchor="start" x="1124.62" y="-157.45" font-family="arial" font-size="14.00">pigtail:2:Black</text>
<text text-anchor="start" x="1215.62" y="-157.45" font-family="arial" font-size="14.00"> &#160;&#160;&#160;&#160;3:BK &#160;&#160;&#160;</text>
<text text-anchor="start" x="1285.25" y="-157.45" font-family="arial" font-size="14.00">HAT serial:5:GND</text>
<polygon fill="#000000" stroke="none" points="1121.5,-151 1121.5,-153 1395.25,-153 1395.25,-151 1121.5,-151"/>
<polygon fill="#000000" stroke="none" points="1121.5,-149 1121.5,-151 1395.25,-151 1395.25,-149 1121.5,-149"/>
<polygon fill="#000000" stroke="none" points="1121.5,-147 1121.5,-149 1395.25,-149 1395.25,-147 1121.5,-147"/>
<text text-anchor="start" x="1164.38" y="-131.7" font-family="arial" font-size="14.00"> </text>
<polygon fill="none" stroke="black" points="1121.5,-103.5 1121.5,-127.25 1395.25,-127.25 1395.25,-103.5 1121.5,-103.5"/>
<text text-anchor="start" x="1207.38" y="-109.95" font-family="arial" font-size="14.00">TX/RX crossover</text>
</g>
<!-- pigtail&#45;&#45;Serial -->
<g id="edge13" class="edge">
<title>pigtail:e&#45;&#45;Serial:w</title>
<path fill="none" stroke="#000000" stroke-width="2" d="M977.5,-198.75C1041.59,-198.75 1057.59,-199.5 1121.5,-199.5"/>
<path fill="none" stroke="#0066ff" stroke-width="2" d="M977.5,-200.75C1041.5,-200.75 1057.5,-201.5 1121.5,-201.5"/>
<path fill="none" stroke="#000000" stroke-width="2" d="M977.5,-202.75C1041.41,-202.75 1057.41,-203.5 1121.5,-203.5"/>
</g>
<!-- pigtail&#45;&#45;Serial -->
<g id="edge15" class="edge">
<title>pigtail:e&#45;&#45;Serial:w</title>
<path fill="none" stroke="#000000" stroke-width="2" d="M977.5,-175C1041.35,-175.01 1057.34,-173.76 1121.5,-173.75"/>
<path fill="none" stroke="#ffffff" stroke-width="2" d="M977.5,-177C1041.5,-177 1057.5,-175.75 1121.5,-175.75"/>
<path fill="none" stroke="#000000" stroke-width="2" d="M977.5,-179C1041.66,-178.99 1057.65,-177.74 1121.5,-177.75"/>
</g>
<!-- pigtail&#45;&#45;Serial -->
<g id="edge17" class="edge">
<title>pigtail:e&#45;&#45;Serial:w</title>
<path fill="none" stroke="#000000" stroke-width="2" d="M977.5,-222.5C1047.56,-224.5 1047.44,-150 1121.5,-148"/>
<path fill="none" stroke="#000000" stroke-width="2" d="M977.5,-224.5C1049.56,-224.5 1049.44,-150 1121.5,-150"/>
<path fill="none" stroke="#000000" stroke-width="2" d="M977.5,-226.5C1051.56,-224.5 1051.44,-150 1121.5,-152"/>
</g>
<!-- HAT 12V -->
<g id="node3" class="node">
<title>HAT 12V</title>
<polygon fill="#ffffff" stroke="black" points="1772.25,-446.88 1546.75,-446.88 1546.75,-328.12 1772.25,-328.12 1772.25,-446.88"/>
<polygon fill="none" stroke="black" points="1546.75,-423.12 1546.75,-446.88 1772.25,-446.88 1772.25,-423.12 1546.75,-423.12"/>
<text text-anchor="start" x="1632.5" y="-429.57" font-family="arial" font-size="14.00">HAT 12V</text>
<polygon fill="none" stroke="black" points="1546.75,-399.38 1546.75,-423.12 1662.12,-423.12 1662.12,-399.38 1546.75,-399.38"/>
<text text-anchor="start" x="1586.81" y="-405.82" font-family="arial" font-size="14.00">screw</text>
<polygon fill="none" stroke="black" points="1662.12,-399.38 1662.12,-423.12 1772.25,-423.12 1772.25,-399.38 1662.12,-399.38"/>
<text text-anchor="start" x="1702.19" y="-405.82" font-family="arial" font-size="14.00">2&#45;pin</text>
<polygon fill="none" stroke="black" points="1546.75,-375.62 1546.75,-399.38 1647.88,-399.38 1647.88,-375.62 1546.75,-375.62"/>
<text text-anchor="start" x="1593.56" y="-382.07" font-family="arial" font-size="14.00">1</text>
<polygon fill="none" stroke="black" points="1647.88,-375.62 1647.88,-399.38 1772.25,-399.38 1772.25,-375.62 1647.88,-375.62"/>
<text text-anchor="start" x="1701.44" y="-382.07" font-family="arial" font-size="14.00">V+</text>
<polygon fill="none" stroke="black" points="1546.75,-351.88 1546.75,-375.62 1647.88,-375.62 1647.88,-351.88 1546.75,-351.88"/>
<text text-anchor="start" x="1593.56" y="-358.32" font-family="arial" font-size="14.00">2</text>
<polygon fill="none" stroke="black" points="1647.88,-351.88 1647.88,-375.62 1772.25,-375.62 1772.25,-351.88 1647.88,-351.88"/>
<text text-anchor="start" x="1694.69" y="-358.32" font-family="arial" font-size="14.00">GND</text>
<polygon fill="none" stroke="black" points="1546.75,-328.12 1546.75,-351.88 1772.25,-351.88 1772.25,-328.12 1546.75,-328.12"/>
<text text-anchor="start" x="1550.75" y="-334.57" font-family="arial" font-size="14.00">Waveshare HAT 12V screw terminal</text>
</g>
<!-- HAT serial -->
<g id="node4" class="node">
<title>HAT serial</title>
<polygon fill="#ffffff" stroke="black" points="1779.75,-285 1539.25,-285 1539.25,0 1779.75,0 1779.75,-285"/>
<polygon fill="none" stroke="black" points="1539.25,-261.25 1539.25,-285 1779.75,-285 1779.75,-261.25 1539.25,-261.25"/>
<text text-anchor="start" x="1628.38" y="-267.7" font-family="arial" font-size="14.00">HAT serial</text>
<polygon fill="none" stroke="black" points="1539.25,-237.5 1539.25,-261.25 1619.92,-261.25 1619.92,-237.5 1539.25,-237.5"/>
<text text-anchor="start" x="1564.21" y="-243.95" font-family="arial" font-size="14.00">DE&#45;9</text>
<polygon fill="none" stroke="black" points="1619.92,-237.5 1619.92,-261.25 1699.83,-261.25 1699.83,-237.5 1619.92,-237.5"/>
<text text-anchor="start" x="1644.88" y="-243.95" font-family="arial" font-size="14.00">male</text>
<polygon fill="none" stroke="black" points="1699.83,-237.5 1699.83,-261.25 1779.75,-261.25 1779.75,-237.5 1699.83,-237.5"/>
<text text-anchor="start" x="1724.79" y="-243.95" font-family="arial" font-size="14.00">9&#45;pin</text>
<polygon fill="none" stroke="black" points="1539.25,-213.75 1539.25,-237.5 1647.88,-237.5 1647.88,-213.75 1539.25,-213.75"/>
<text text-anchor="start" x="1589.81" y="-220.2" font-family="arial" font-size="14.00">1</text>
<polygon fill="none" stroke="black" points="1647.88,-213.75 1647.88,-237.5 1779.75,-237.5 1779.75,-213.75 1647.88,-213.75"/>
<text text-anchor="start" x="1699.19" y="-220.2" font-family="arial" font-size="14.00">DCD</text>
<polygon fill="none" stroke="black" points="1539.25,-190 1539.25,-213.75 1647.88,-213.75 1647.88,-190 1539.25,-190"/>
<text text-anchor="start" x="1589.81" y="-196.45" font-family="arial" font-size="14.00">2</text>
<polygon fill="none" stroke="black" points="1647.88,-190 1647.88,-213.75 1779.75,-213.75 1779.75,-190 1647.88,-190"/>
<text text-anchor="start" x="1704.44" y="-196.45" font-family="arial" font-size="14.00">RX</text>
<polygon fill="none" stroke="black" points="1539.25,-166.25 1539.25,-190 1647.88,-190 1647.88,-166.25 1539.25,-166.25"/>
<text text-anchor="start" x="1589.81" y="-172.7" font-family="arial" font-size="14.00">3</text>
<polygon fill="none" stroke="black" points="1647.88,-166.25 1647.88,-190 1779.75,-190 1779.75,-166.25 1647.88,-166.25"/>
<text text-anchor="start" x="1705.19" y="-172.7" font-family="arial" font-size="14.00">TX</text>
<polygon fill="none" stroke="black" points="1539.25,-142.5 1539.25,-166.25 1647.88,-166.25 1647.88,-142.5 1539.25,-142.5"/>
<text text-anchor="start" x="1589.81" y="-148.95" font-family="arial" font-size="14.00">4</text>
<polygon fill="none" stroke="black" points="1647.88,-142.5 1647.88,-166.25 1779.75,-166.25 1779.75,-142.5 1647.88,-142.5"/>
<text text-anchor="start" x="1699.94" y="-148.95" font-family="arial" font-size="14.00">DTR</text>
<polygon fill="none" stroke="black" points="1539.25,-118.75 1539.25,-142.5 1647.88,-142.5 1647.88,-118.75 1539.25,-118.75"/>
<text text-anchor="start" x="1589.81" y="-125.2" font-family="arial" font-size="14.00">5</text>
<polygon fill="none" stroke="black" points="1647.88,-118.75 1647.88,-142.5 1779.75,-142.5 1779.75,-118.75 1647.88,-118.75"/>
<text text-anchor="start" x="1698.44" y="-125.2" font-family="arial" font-size="14.00">GND</text>
<polygon fill="none" stroke="black" points="1539.25,-95 1539.25,-118.75 1647.88,-118.75 1647.88,-95 1539.25,-95"/>
<text text-anchor="start" x="1589.81" y="-101.45" font-family="arial" font-size="14.00">6</text>
<polygon fill="none" stroke="black" points="1647.88,-95 1647.88,-118.75 1779.75,-118.75 1779.75,-95 1647.88,-95"/>
<text text-anchor="start" x="1699.56" y="-101.45" font-family="arial" font-size="14.00">DSR</text>
<polygon fill="none" stroke="black" points="1539.25,-71.25 1539.25,-95 1647.88,-95 1647.88,-71.25 1539.25,-71.25"/>
<text text-anchor="start" x="1589.81" y="-77.7" font-family="arial" font-size="14.00">7</text>
<polygon fill="none" stroke="black" points="1647.88,-71.25 1647.88,-95 1779.75,-95 1779.75,-71.25 1647.88,-71.25"/>
<text text-anchor="start" x="1700.31" y="-77.7" font-family="arial" font-size="14.00">RTS</text>
<polygon fill="none" stroke="black" points="1539.25,-47.5 1539.25,-71.25 1647.88,-71.25 1647.88,-47.5 1539.25,-47.5"/>
<text text-anchor="start" x="1589.81" y="-53.95" font-family="arial" font-size="14.00">8</text>
<polygon fill="none" stroke="black" points="1647.88,-47.5 1647.88,-71.25 1779.75,-71.25 1779.75,-47.5 1647.88,-47.5"/>
<text text-anchor="start" x="1700.31" y="-53.95" font-family="arial" font-size="14.00">CTS</text>
<polygon fill="none" stroke="black" points="1539.25,-23.75 1539.25,-47.5 1647.88,-47.5 1647.88,-23.75 1539.25,-23.75"/>
<text text-anchor="start" x="1589.81" y="-30.2" font-family="arial" font-size="14.00">9</text>
<polygon fill="none" stroke="black" points="1647.88,-23.75 1647.88,-47.5 1779.75,-47.5 1779.75,-23.75 1647.88,-23.75"/>
<text text-anchor="start" x="1707.06" y="-30.2" font-family="arial" font-size="14.00">RI</text>
<polygon fill="none" stroke="black" points="1539.25,0 1539.25,-23.75 1779.75,-23.75 1779.75,0 1539.25,0"/>
<text text-anchor="start" x="1543.25" y="-6.45" font-family="arial" font-size="14.00">Waveshare RS232/485 HAT serial port</text>
</g>
<!-- M12 cable&#45;&#45;pigtail -->
<g id="edge2" class="edge">
<title>M12 cable:e&#45;&#45;pigtail:w</title>
<path fill="none" stroke="#000000" stroke-width="2" d="M674.75,-248.38C738.49,-248.39 754.48,-246.27 818.75,-246.25"/>
<path fill="none" stroke="#ceb673" stroke-width="2" d="M674.75,-250.38C738.76,-250.38 754.74,-248.25 818.75,-248.25"/>
<path fill="none" stroke="#000000" stroke-width="2" d="M674.75,-252.37C739.02,-252.36 755.01,-250.23 818.75,-250.25"/>
</g>
<!-- M12 cable&#45;&#45;pigtail -->
<g id="edge4" class="edge">
<title>M12 cable:e&#45;&#45;pigtail:w</title>
<path fill="none" stroke="#000000" stroke-width="2" d="M674.75,-222.63C738.73,-222.63 754.73,-222.5 818.75,-222.5"/>
<path fill="none" stroke="#000000" stroke-width="2" d="M674.75,-224.62C738.75,-224.63 754.75,-224.5 818.75,-224.5"/>
<path fill="none" stroke="#000000" stroke-width="2" d="M674.75,-226.62C738.77,-226.62 754.77,-226.5 818.75,-226.5"/>
</g>
<!-- M12 cable&#45;&#45;pigtail -->
<g id="edge6" class="edge">
<title>M12 cable:e&#45;&#45;pigtail:w</title>
<path fill="none" stroke="#000000" stroke-width="2" d="M674.75,-196.88C738.99,-196.89 754.98,-198.76 818.75,-198.75"/>
<path fill="none" stroke="#0066ff" stroke-width="2" d="M674.75,-198.88C738.76,-198.88 754.74,-200.75 818.75,-200.75"/>
<path fill="none" stroke="#000000" stroke-width="2" d="M674.75,-200.87C738.52,-200.86 754.51,-202.74 818.75,-202.75"/>
</g>
<!-- M12 cable&#45;&#45;pigtail -->
<g id="edge8" class="edge">
<title>M12 cable:e&#45;&#45;pigtail:w</title>
<path fill="none" stroke="#000000" stroke-width="2" d="M674.75,-171.13C739.25,-171.18 755.2,-175.06 818.75,-175"/>
<path fill="none" stroke="#ffffff" stroke-width="2" d="M674.75,-173.12C738.77,-173.12 754.73,-177 818.75,-177"/>
<path fill="none" stroke="#000000" stroke-width="2" d="M674.75,-175.12C738.3,-175.07 754.25,-178.94 818.75,-179"/>
</g>
<!-- Power&#45;&#45;HAT 12V -->
<g id="edge10" class="edge">
<title>Power:e&#45;&#45;HAT 12V:w</title>
<path fill="none" stroke="#000000" stroke-width="2" d="M1392.12,-385.63C1460.39,-385.63 1477.46,-385.5 1545.75,-385.5"/>
<path fill="none" stroke="#ceb673" stroke-width="2" d="M1392.12,-387.63C1460.4,-387.62 1477.47,-387.5 1545.75,-387.5"/>
<path fill="none" stroke="#000000" stroke-width="2" d="M1392.12,-389.62C1460.42,-389.62 1477.49,-389.5 1545.75,-389.5"/>
</g>
<!-- Power&#45;&#45;HAT 12V -->
<g id="edge12" class="edge">
<title>Power:e&#45;&#45;HAT 12V:w</title>
<path fill="none" stroke="#000000" stroke-width="2" d="M1392.12,-359.88C1460.63,-359.89 1477.69,-361.76 1545.75,-361.75"/>
<path fill="none" stroke="#000000" stroke-width="2" d="M1392.12,-361.88C1460.41,-361.87 1477.47,-363.75 1545.75,-363.75"/>
<path fill="none" stroke="#000000" stroke-width="2" d="M1392.12,-363.87C1460.19,-363.86 1477.25,-365.74 1545.75,-365.75"/>
</g>
<!-- Serial&#45;&#45;HAT serial -->
<g id="edge14" class="edge">
<title>Serial:e&#45;&#45;HAT serial:w</title>
<path fill="none" stroke="#000000" stroke-width="2" d="M1395.25,-199.5C1459.3,-199.5 1475.3,-199.88 1539.25,-199.88"/>
<path fill="none" stroke="#0066ff" stroke-width="2" d="M1395.25,-201.5C1459.25,-201.5 1475.25,-201.87 1539.25,-201.87"/>
<path fill="none" stroke="#000000" stroke-width="2" d="M1395.25,-203.5C1459.2,-203.5 1475.2,-203.87 1539.25,-203.87"/>
</g>
<!-- Serial&#45;&#45;HAT serial -->
<g id="edge16" class="edge">
<title>Serial:e&#45;&#45;HAT serial:w</title>
<path fill="none" stroke="#000000" stroke-width="2" d="M1395.25,-173.75C1459.55,-173.77 1475.54,-176.15 1539.25,-176.13"/>
<path fill="none" stroke="#ffffff" stroke-width="2" d="M1395.25,-175.75C1459.26,-175.75 1475.24,-178.12 1539.25,-178.12"/>
<path fill="none" stroke="#000000" stroke-width="2" d="M1395.25,-177.75C1458.96,-177.73 1474.95,-180.1 1539.25,-180.12"/>
</g>
<!-- Serial&#45;&#45;HAT serial -->
<g id="edge18" class="edge">
<title>Serial:e&#45;&#45;HAT serial:w</title>
<path fill="none" stroke="#000000" stroke-width="2" d="M1395.25,-148C1458.24,-148.78 1473.09,-129.41 1539.25,-128.63"/>
<path fill="none" stroke="#000000" stroke-width="2" d="M1395.25,-150C1459.83,-150 1474.67,-130.62 1539.25,-130.62"/>
<path fill="none" stroke="#000000" stroke-width="2" d="M1395.25,-152C1461.41,-151.22 1476.26,-131.84 1539.25,-132.62"/>
</g>
</g>
</svg>
