<svg xmlns="http://www.w3.org/2000/svg" viewBox="0 0 540 78" width="540" height="78" role="img" aria-label="Lines of code by language with test coverage shown as hatched uncovered regions"><defs><style>.lbl{fill:#111111}.edge{stroke:#111111}@media (prefers-color-scheme:dark){.lbl{fill:#e8e8e8}.edge{stroke:#d0d0d0}}</style><pattern id="hatch" patternUnits="userSpaceOnUse" width="7" height="7" patternTransform="rotate(45)"><line x1="0" y1="0" x2="0" y2="7" stroke="#d72638" stroke-width="2.5"/></pattern></defs><rect x="8.00" y="12.00" width="45.66" height="26.00" fill="#ff4fb8" stroke="none"/><rect x="52.21" y="12.00" width="1.45" height="26.00" fill="url(#hatch)" stroke="none"/><rect x="8.00" y="12.00" width="45.66" height="26.00" fill="none" class="edge" stroke-width="2"/><text x="30.8" y="29.0" font-family="'Atkinson Hyperlegible', 'Helvetica Neue', Arial, sans-serif" font-size="12" font-weight="700" fill="#111111" text-anchor="middle">js</text><rect x="53.66" y="12.00" width="261.08" height="26.00" fill="#7fdc2a" stroke="none"/><rect x="292.07" y="12.00" width="22.67" height="26.00" fill="url(#hatch)" stroke="none"/><rect x="53.66" y="12.00" width="261.08" height="26.00" fill="none" class="edge" stroke-width="2"/><text x="184.2" y="29.0" font-family="'Atkinson Hyperlegible', 'Helvetica Neue', Arial, sans-serif" font-size="12" font-weight="700" fill="#111111" text-anchor="middle">go</text><rect x="314.74" y="12.00" width="28.38" height="26.00" fill="#e7b27a" stroke="none"/><rect x="326.45" y="12.00" width="16.67" height="26.00" fill="url(#hatch)" stroke="none"/><rect x="314.74" y="12.00" width="28.38" height="26.00" fill="none" class="edge" stroke-width="2"/><text x="328.9" y="29.0" font-family="'Atkinson Hyperlegible', 'Helvetica Neue', Arial, sans-serif" font-size="12" font-weight="700" fill="#111111" text-anchor="middle">mac</text><rect x="8.00" y="46.00" width="74.90" height="26.00" fill="#5aa6e8" stroke="none"/><rect x="8.00" y="46.00" width="74.90" height="26.00" fill="none" class="edge" stroke-width="2"/><text x="45.5" y="63.0" font-family="'Atkinson Hyperlegible', 'Helvetica Neue', Arial, sans-serif" font-size="12" font-weight="700" fill="#111111" text-anchor="middle">docs</text><rect x="82.90" y="46.00" width="29.98" height="26.00" fill="#b4b85a" stroke="none"/><rect x="82.90" y="46.00" width="29.98" height="26.00" fill="none" class="edge" stroke-width="2"/><text x="120.9" y="63.0" font-family="'Atkinson Hyperlegible', 'Helvetica Neue', Arial, sans-serif" font-size="11" font-weight="700" class="lbl" text-anchor="start">scripts</text></svg>
