<svg xmlns="http://www.w3.org/2000/svg" viewBox="0 0 540 78" width="540" height="78" role="img" aria-label="Lines of code by language with test coverage shown as hatched uncovered regions"><defs><style>.lbl{fill:#111111}.edge{stroke:#111111}@media (prefers-color-scheme:dark){.lbl{fill:#e8e8e8}.edge{stroke:#d0d0d0}}</style><pattern id="hatch" patternUnits="userSpaceOnUse" width="7" height="7" patternTransform="rotate(45)"><line x1="0" y1="0" x2="0" y2="7" stroke="#d72638" stroke-width="2.5"/></pattern></defs><rect x="8.00" y="12.00" width="41.97" height="26.00" fill="#ff4fb8" stroke="none"/><rect x="47.54" y="12.00" width="2.43" height="26.00" fill="url(#hatch)" stroke="none"/><rect x="8.00" y="12.00" width="41.97" height="26.00" fill="none" class="edge" stroke-width="2"/><text x="29.0" y="29.0" font-family="'Atkinson Hyperlegible', 'Helvetica Neue', Arial, sans-serif" font-size="12" font-weight="700" fill="#111111" text-anchor="middle">js</text><rect x="49.97" y="12.00" width="276.77" height="26.00" fill="#7fdc2a" stroke="none"/><rect x="295.74" y="12.00" width="31.00" height="26.00" fill="url(#hatch)" stroke="none"/><rect x="49.97" y="12.00" width="276.77" height="26.00" fill="none" class="edge" stroke-width="2"/><text x="188.4" y="29.0" font-family="'Atkinson Hyperlegible', 'Helvetica Neue', Arial, sans-serif" font-size="12" font-weight="700" fill="#111111" text-anchor="middle">go</text><rect x="326.74" y="12.00" width="29.67" height="26.00" fill="#e7b27a" stroke="none"/><rect x="351.95" y="12.00" width="4.47" height="26.00" fill="url(#hatch)" stroke="none"/><rect x="326.74" y="12.00" width="29.67" height="26.00" fill="none" class="edge" stroke-width="2"/><text x="341.6" y="29.0" font-family="'Atkinson Hyperlegible', 'Helvetica Neue', Arial, sans-serif" font-size="12" font-weight="700" fill="#111111" text-anchor="middle">mac</text><rect x="8.00" y="46.00" width="70.11" height="26.00" fill="#5aa6e8" stroke="none"/><rect x="8.00" y="46.00" width="70.11" height="26.00" fill="none" class="edge" stroke-width="2"/><text x="43.1" y="63.0" font-family="'Atkinson Hyperlegible', 'Helvetica Neue', Arial, sans-serif" font-size="12" font-weight="700" fill="#111111" text-anchor="middle">docs</text><rect x="78.11" y="46.00" width="21.47" height="26.00" fill="#b4b85a" stroke="none"/><rect x="78.11" y="46.00" width="21.47" height="26.00" fill="none" class="edge" stroke-width="2"/><text x="107.6" y="63.0" font-family="'Atkinson Hyperlegible', 'Helvetica Neue', Arial, sans-serif" font-size="11" font-weight="700" class="lbl" text-anchor="start">scripts</text></svg>
