<svg xmlns="http://www.w3.org/2000/svg" width="190.000mm" height="76.000mm" viewBox="0 0 718.1102 287.2441">
<defs><!-- embedded font elided from the golden file --></defs>
<g font-family="Atkinson Hyperlegible">
<rect x="4.0000" y="4.0000" width="115.4000" height="19.0000" fill="white" stroke="black" stroke-width="1.2"/>
<text x="10.0000" y="18.0000" class="status" font-size="11.0" font-weight="bold">SYNTHETIC ORACLE</text>
<line x1="49.0000" y1="246.7441" x2="606.1102" y2="246.7441" stroke="#e6e6e6" stroke-width="0.5"/>
<text x="47.0000" y="249.5774" font-size="8.5" text-anchor="end">0%</text>
<line x1="49.0000" y1="205.1953" x2="606.1102" y2="205.1953" stroke="#e6e6e6" stroke-width="0.5"/>
<text x="47.0000" y="208.0286" font-size="8.5" text-anchor="end">20%</text>
<line x1="49.0000" y1="163.6465" x2="606.1102" y2="163.6465" stroke="#e6e6e6" stroke-width="0.5"/>
<text x="47.0000" y="166.4798" font-size="8.5" text-anchor="end">40%</text>
<line x1="49.0000" y1="122.0976" x2="606.1102" y2="122.0976" stroke="#e6e6e6" stroke-width="0.5"/>
<text x="47.0000" y="124.9310" font-size="8.5" text-anchor="end">60%</text>
<line x1="49.0000" y1="80.5488" x2="606.1102" y2="80.5488" stroke="#e6e6e6" stroke-width="0.5"/>
<text x="47.0000" y="83.3822" font-size="8.5" text-anchor="end">80%</text>
<line x1="49.0000" y1="39.0000" x2="606.1102" y2="39.0000" stroke="#e6e6e6" stroke-width="0.5"/>
<text x="47.0000" y="41.8333" font-size="8.5" text-anchor="end">100%</text>
<text x="584.7983" y="260.2441" font-size="8.5" text-anchor="middle">3+</text>
<line x1="52.0000" y1="246.7441" x2="52.0000" y2="249.7441" stroke="black" stroke-width="0.5"/>
<text x="52.0000" y="260.2441" font-size="8.5" text-anchor="middle">0</text>
<line x1="137.2477" y1="246.7441" x2="137.2477" y2="249.7441" stroke="black" stroke-width="0.5"/>
<text x="137.2477" y="260.2441" font-size="8.5" text-anchor="middle">0.5</text>
<line x1="222.4955" y1="246.7441" x2="222.4955" y2="249.7441" stroke="black" stroke-width="0.5"/>
<text x="222.4955" y="260.2441" font-size="8.5" text-anchor="middle">1</text>
<line x1="307.7432" y1="246.7441" x2="307.7432" y2="249.7441" stroke="black" stroke-width="0.5"/>
<text x="307.7432" y="260.2441" font-size="8.5" text-anchor="middle">1.5</text>
<line x1="392.9909" y1="246.7441" x2="392.9909" y2="249.7441" stroke="black" stroke-width="0.5"/>
<text x="392.9909" y="260.2441" font-size="8.5" text-anchor="middle">2</text>
<line x1="478.2386" y1="246.7441" x2="478.2386" y2="249.7441" stroke="black" stroke-width="0.5"/>
<text x="478.2386" y="260.2441" font-size="8.5" text-anchor="middle">2.5</text>
<line x1="563.4864" y1="246.7441" x2="563.4864" y2="249.7441" stroke="black" stroke-width="0.5"/>
<text x="563.4864" y="260.2441" font-size="8.5" text-anchor="middle">3</text>
<line x1="392.9909" y1="39.0000" x2="392.9909" y2="246.7441" stroke="#4a4a4a" stroke-width="1" stroke-dasharray="4 3"/>
<text x="395.9909" y="35.0000" font-size="8.5" fill="#4a4a4a">2 s</text>
<line x1="307.7432" y1="39.0000" x2="307.7432" y2="246.7441" stroke="#4a4a4a" stroke-width="1" stroke-dasharray="4 3"/>
<text x="310.7432" y="35.0000" font-size="8.5" fill="#4a4a4a">1.5 s</text>
<line x1="222.4955" y1="39.0000" x2="222.4955" y2="246.7441" stroke="#4a4a4a" stroke-width="1" stroke-dasharray="4 3"/>
<text x="225.4955" y="35.0000" font-size="8.5" fill="#4a4a4a">1 s</text>
<line x1="52.0000" y1="39.0000" x2="52.0000" y2="246.7441" stroke="black" stroke-width="1"/>
<line x1="52.0000" y1="246.7441" x2="606.1102" y2="246.7441" stroke="black" stroke-width="1"/>
<text x="244.4551" y="279.2441" class="vocab" font-size="10.0">interaction.following_net_time_gap_s</text>
<text x="417.6551" y="279.2441" font-size="10.0">(s)</text>
<text x="12.0000" y="142.8720" font-size="10.0" text-anchor="middle" transform="rotate(-90 12 142.8720)">share of accounted time (%)</text>
<line x1="623.1102" y1="39.0000" x2="623.1102" y2="246.7441" stroke="#999" stroke-width="0.6"/>
<text x="674.1102" y="279.2441" font-size="10.0" text-anchor="middle">suppressed</text>
<line x1="640.1102" y1="246.7441" x2="708.1102" y2="246.7441" stroke="black" stroke-width="1"/>
<rect x="643.1102" y="208.5870" width="28.0000" height="38.1571" fill="#d8d3cf" stroke="#8a8a8a" stroke-width="0.6"/>
<text x="657.1102" y="205.5870" font-size="7.5" text-anchor="middle">18.4%</text>
<text x="659.9436" y="242.7441" class="vocab" font-size="8.5" transform="rotate(-90 659.9436 242.7441)">insufficient_observation</text>
<rect x="677.1102" y="77.1571" width="28.0000" height="169.5870" fill="#d8d3cf" stroke="#8a8a8a" stroke-width="0.6"/>
<text x="691.1102" y="74.1571" font-size="7.5" text-anchor="middle">81.6%</text>
<text x="693.9436" y="242.7441" class="vocab" font-size="8.5" transform="rotate(-90 693.9436 242.7441)">ambiguous_leader</text>
</g>
</svg>
