<?xml version="1.0" encoding="UTF-8" standalone="no"?>
<!DOCTYPE svg PUBLIC "-//W3C//DTD SVG 1.1//EN"
 "http://www.w3.org/Graphics/SVG/1.1/DTD/svg11.dtd">
<!-- Generated by graphviz version 12.2.1 (20241206.2353)
 -->
<!-- Title: structs Pages: 1 -->
<svg width="323pt" height="319pt"
 viewBox="0.00 0.00 322.75 318.88" xmlns="http://www.w3.org/2000/svg" xmlns:xlink="http://www.w3.org/1999/xlink">
<g id="graph0" class="graph" transform="scale(1 1) rotate(0) translate(4 314.88)">
<title>structs</title>
<polygon fill="white" stroke="none" points="-4,4 -4,-314.88 318.75,-314.88 318.75,4 -4,4"/>
<!-- radar_command_log -->
<g id="node1" class="node">
<title>radar_command_log</title>
<polygon fill="none" stroke="black" points="8,-97 8,-119.5 136.25,-119.5 136.25,-97 8,-97"/>
<text text-anchor="start" x="11" y="-104.2" font-family="Times,serif" font-weight="bold" font-size="14.00">radar_command_log</text>
<polygon fill="none" stroke="black" points="8,-72.25 8,-97 33.12,-97 33.12,-72.25 8,-72.25"/>
<text text-anchor="start" x="13.44" y="-80.7" font-family="Times,serif" font-size="14.00">🔑</text>
<polygon fill="none" stroke="black" points="33.12,-72.25 33.12,-97 136.25,-97 136.25,-72.25 33.12,-72.25"/>
<text text-anchor="start" x="67.44" y="-79.58" font-family="Times,serif" font-size="14.00">log_id</text>
<polygon fill="none" stroke="black" points="8,-49.75 8,-72.25 33.12,-72.25 33.12,-49.75 8,-49.75"/>
<text text-anchor="start" x="18.69" y="-55.95" font-family="Times,serif" font-size="14.00"> </text>
<polygon fill="none" stroke="black" points="33.12,-49.75 33.12,-72.25 136.25,-72.25 136.25,-49.75 33.12,-49.75"/>
<text text-anchor="start" x="48.69" y="-55.95" font-family="Times,serif" font-size="14.00">command_id</text>
<polygon fill="none" stroke="black" points="8,-27.25 8,-49.75 33.12,-49.75 33.12,-27.25 8,-27.25"/>
<text text-anchor="start" x="18.69" y="-33.45" font-family="Times,serif" font-size="14.00"> </text>
<polygon fill="none" stroke="black" points="33.12,-27.25 33.12,-49.75 136.25,-49.75 136.25,-27.25 33.12,-27.25"/>
<text text-anchor="start" x="61.44" y="-33.45" font-family="Times,serif" font-size="14.00">log_data</text>
<polygon fill="none" stroke="black" points="8,-4.75 8,-27.25 33.12,-27.25 33.12,-4.75 8,-4.75"/>
<text text-anchor="start" x="18.69" y="-10.95" font-family="Times,serif" font-size="14.00"> </text>
<polygon fill="none" stroke="black" points="33.12,-4.75 33.12,-27.25 136.25,-27.25 136.25,-4.75 33.12,-4.75"/>
<text text-anchor="start" x="38.56" y="-10.95" font-family="Times,serif" font-size="14.00">write_timestamp</text>
</g>
<!-- radar_commands -->
<g id="node2" class="node">
<title>radar_commands</title>
<polygon fill="none" stroke="black" points="188.25,-73.75 188.25,-96.25 306.75,-96.25 306.75,-73.75 188.25,-73.75"/>
<text text-anchor="start" x="195.75" y="-80.95" font-family="Times,serif" font-weight="bold" font-size="14.00">radar_commands</text>
<polygon fill="none" stroke="black" points="188.25,-49 188.25,-73.75 208.5,-73.75 208.5,-49 188.25,-49"/>
<text text-anchor="start" x="191.25" y="-57.45" font-family="Times,serif" font-size="14.00">🔑</text>
<polygon fill="none" stroke="black" points="208.5,-49 208.5,-73.75 306.75,-73.75 306.75,-49 208.5,-49"/>
<text text-anchor="start" x="221.62" y="-56.33" font-family="Times,serif" font-size="14.00">command_id</text>
<polygon fill="none" stroke="black" points="188.25,-26.5 188.25,-49 208.5,-49 208.5,-26.5 188.25,-26.5"/>
<text text-anchor="start" x="196.5" y="-32.7" font-family="Times,serif" font-size="14.00"> </text>
<polygon fill="none" stroke="black" points="208.5,-26.5 208.5,-49 306.75,-49 306.75,-26.5 208.5,-26.5"/>
<text text-anchor="start" x="230.25" y="-32.7" font-family="Times,serif" font-size="14.00">command</text>
<polygon fill="none" stroke="black" points="188.25,-4 188.25,-26.5 208.5,-26.5 208.5,-4 188.25,-4"/>
<text text-anchor="start" x="196.5" y="-10.2" font-family="Times,serif" font-size="14.00"> </text>
<polygon fill="none" stroke="black" points="208.5,-4 208.5,-26.5 306.75,-26.5 306.75,-4 208.5,-4"/>
<text text-anchor="start" x="211.5" y="-10.2" font-family="Times,serif" font-size="14.00">write_timestamp</text>
</g>
<!-- radar_command_log&#45;&gt;radar_commands -->
<g id="edge1" class="edge">
<title>radar_command_log:e&#45;&gt;radar_commands:w</title>
<path fill="none" stroke="black" d="M137.25,-61C155.13,-61 162.22,-61.24 175.89,-61.34"/>
<polygon fill="black" stroke="black" points="175.72,-64.84 185.74,-61.37 175.75,-57.84 175.72,-64.84"/>
</g>
<!-- radar_data -->
<g id="node3" class="node">
<title>radar_data</title>
<polygon fill="none" stroke="black" points="18.12,-190.38 18.12,-212.88 126.12,-212.88 126.12,-190.38 18.12,-190.38"/>
<text text-anchor="start" x="39.5" y="-197.57" font-family="Times,serif" font-weight="bold" font-size="14.00">radar_data</text>
<polygon fill="none" stroke="black" points="18.12,-167.88 18.12,-190.38 27.88,-190.38 27.88,-167.88 18.12,-167.88"/>
<text text-anchor="start" x="21.12" y="-174.07" font-family="Times,serif" font-size="14.00"> </text>
<polygon fill="none" stroke="black" points="27.88,-167.88 27.88,-190.38 126.12,-190.38 126.12,-167.88 27.88,-167.88"/>
<text text-anchor="start" x="30.88" y="-174.07" font-family="Times,serif" font-size="14.00">write_timestamp</text>
<polygon fill="none" stroke="black" points="18.12,-145.38 18.12,-167.88 27.88,-167.88 27.88,-145.38 18.12,-145.38"/>
<text text-anchor="start" x="21.12" y="-151.57" font-family="Times,serif" font-size="14.00"> </text>
<polygon fill="none" stroke="black" points="27.88,-145.38 27.88,-167.88 126.12,-167.88 126.12,-145.38 27.88,-145.38"/>
<text text-anchor="start" x="48.88" y="-151.57" font-family="Times,serif" font-size="14.00">raw_event</text>
</g>
<!-- radar_objects -->
<g id="node4" class="node">
<title>radar_objects</title>
<polygon fill="none" stroke="black" points="18.12,-284.38 18.12,-306.88 126.12,-306.88 126.12,-284.38 18.12,-284.38"/>
<text text-anchor="start" x="32" y="-291.57" font-family="Times,serif" font-weight="bold" font-size="14.00">radar_objects</text>
<polygon fill="none" stroke="black" points="18.12,-261.88 18.12,-284.38 27.88,-284.38 27.88,-261.88 18.12,-261.88"/>
<text text-anchor="start" x="21.12" y="-268.07" font-family="Times,serif" font-size="14.00"> </text>
<polygon fill="none" stroke="black" points="27.88,-261.88 27.88,-284.38 126.12,-284.38 126.12,-261.88 27.88,-261.88"/>
<text text-anchor="start" x="30.88" y="-268.07" font-family="Times,serif" font-size="14.00">write_timestamp</text>
<polygon fill="none" stroke="black" points="18.12,-239.38 18.12,-261.88 27.88,-261.88 27.88,-239.38 18.12,-239.38"/>
<text text-anchor="start" x="21.12" y="-245.57" font-family="Times,serif" font-size="14.00"> </text>
<polygon fill="none" stroke="black" points="27.88,-239.38 27.88,-261.88 126.12,-261.88 126.12,-239.38 27.88,-239.38"/>
<text text-anchor="start" x="48.88" y="-245.57" font-family="Times,serif" font-size="14.00">raw_event</text>
</g>
</g>
</svg>
